<svg width="54" height="60" viewBox="0 0 54 60" fill="none" xmlns="http://www.w3.org/2000/svg">
<path d="M27.4081 14.8541C16.4841 15.3332 7.99401 19.5495 2.12954 28.5762C1.53543 29.4962 1.53543 30.3011 2.11038 31.2402C6.88245 38.6762 13.686 43.0841 22.3677 44.4831C31.8927 46.0163 40.2678 43.4099 47.378 36.9513C49.1412 35.3415 50.5019 33.2716 52.0159 31.3743C52.7633 30.4352 52.7059 29.4962 52.0542 28.4612C47.378 21.2552 40.7853 16.9814 32.391 15.4291C30.6278 15.1033 28.8455 15.0266 27.4081 14.8541ZM5.44508 29.9178C11.0221 22.2326 18.3814 18.3805 27.6956 18.5721C36.569 18.7446 43.5833 22.6159 48.777 29.9178C44.2158 36.4914 38.0063 40.1327 30.2254 41.1676C29.7462 41.2443 29.2288 41.2826 29.1713 41.2826C19.3205 41.7042 11.3671 38.1204 5.44508 29.9178Z" fill="#FFBF30"/>
<path d="M44.1966 16.9239C44.7141 17.4797 45.0782 18.0547 45.6149 18.3996C46.2856 18.8212 46.9947 18.5146 47.5122 17.978C48.3938 17.0964 49.237 16.1765 50.0803 15.2757C51.1727 14.1258 52.2843 12.9759 53.3575 11.7877C54.2008 10.8678 54.1816 9.81372 53.3575 9.08545C52.5909 8.39551 51.5752 8.49134 50.7319 9.37293C48.8537 11.3278 46.9947 13.2826 45.1549 15.2757C44.8099 15.6974 44.5991 16.234 44.1966 16.9239Z" fill="#FFBF30"/>
<path d="M9.9872 16.8665C9.64223 16.234 9.48891 15.7741 9.18227 15.4483C7.28494 13.3976 5.34928 11.347 3.41362 9.33466C2.58952 8.47224 1.51628 8.43391 0.788016 9.16218C0.0405827 9.89045 0.0405874 10.9254 0.86468 11.8069C2.74285 13.8384 4.65934 15.8507 6.55667 17.8631C7.15078 18.4955 7.89822 18.8788 8.68398 18.3805C9.2206 18.0164 9.5464 17.3839 9.9872 16.8665Z" fill="#FFBF30"/>
<path d="M46.0556 41.3018C45.5765 41.7042 44.9824 42.03 44.6566 42.5283C44.1966 43.2183 44.4458 43.9465 44.9824 44.5406C46.5922 46.2655 48.2213 47.9712 49.8311 49.6768C50.2336 50.0985 50.5977 50.5393 51.0385 50.9034C51.7859 51.555 52.7825 51.5167 53.4533 50.8459C54.0857 50.2135 54.2199 49.1977 53.5874 48.5078C51.5751 46.3038 49.5053 44.1382 47.4355 41.9725C47.148 41.7042 46.6689 41.5892 46.0556 41.3018Z" fill="#FFBF30"/>
<path d="M8.05155 41.2635C7.43827 41.6468 6.95914 41.8193 6.61417 42.1643C4.65935 44.1766 2.74285 46.2273 0.845523 48.2779C0.0405951 49.1403 0.0597591 50.1944 0.826357 50.9035C1.55463 51.5743 2.58953 51.5551 3.37529 50.7502C5.36845 48.6804 7.32328 46.5914 9.2781 44.5024C9.85305 43.8892 9.96804 43.1226 9.54641 42.4709C9.22061 41.9727 8.58816 41.6852 8.05155 41.2635Z" fill="#FFBF30"/>
<path d="M25.3383 54.0081C25.3383 55.2922 25.3383 56.5571 25.3383 57.8411C25.3575 59.221 25.9708 59.9876 27.1015 60.0068C28.2514 60.0259 28.903 59.2593 28.903 57.8986C28.9222 55.2155 28.9222 52.5324 28.903 49.8493C28.903 48.5845 28.2131 47.7987 27.1398 47.7795C26.0474 47.7604 25.3575 48.527 25.3383 49.811C25.3192 51.2101 25.3383 52.6091 25.3383 54.0081Z" fill="#FFBF30"/>
<path d="M28.903 6.1149C28.903 4.75419 28.9221 3.37432 28.903 2.0136C28.8838 0.787046 28.1364 -0.0370472 27.0823 0.00128276C26.0665 0.0204477 25.3574 0.806211 25.3383 1.99444C25.3191 4.77336 25.3191 7.53311 25.3383 10.312C25.3574 11.5003 26.0665 12.2669 27.1014 12.2669C28.1747 12.2669 28.8838 11.5003 28.903 10.2354C28.9221 8.85549 28.903 7.47562 28.903 6.1149Z" fill="#FFBF30"/>
<path d="M31.9119 22.4433C30.2828 20.7376 25.4149 19.9902 21.8886 22.52C18.1322 25.2414 16.944 30.4351 19.2438 34.3831C21.6394 38.4652 26.699 40.1518 30.7428 38.2161C35.0741 36.1463 37.2397 31.3742 35.649 27.1387C34.48 29.1511 32.8893 30.1285 30.647 29.1511C29.3246 28.5761 28.558 27.1387 28.6921 25.7205C28.8263 24.0724 29.9187 22.9799 31.9119 22.4433Z" fill="#FFBF30"/>
</svg>
