<svg width="15" height="15" viewBox="0 0 15 15" fill="none" xmlns="http://www.w3.org/2000/svg">
<circle cx="7.5" cy="7.5" r="6.5" fill="#132742"/>
<path d="M7.5 0C11.6421 0 15 3.35786 15 7.5C15 11.6421 11.6421 15 7.5 15C3.35786 15 0 11.6421 0 7.5C0 3.35786 3.35786 0 7.5 0ZM7.5 1.125C3.97918 1.125 1.125 3.97918 1.125 7.5C1.125 11.0208 3.97918 13.875 7.5 13.875C11.0208 13.875 13.875 11.0208 13.875 7.5C13.875 3.97918 11.0208 1.125 7.5 1.125ZM7.23529 4.16481L7.28975 4.10172C7.48945 3.90202 7.80195 3.88387 8.02216 4.04726L8.08525 4.10172L11.0859 7.10234C11.2856 7.30207 11.3037 7.61462 11.1403 7.83483L11.0858 7.89791L8.08464 10.8979C7.86493 11.1175 7.50878 11.1175 7.28915 10.8978C7.08949 10.698 7.07139 10.3855 7.23482 10.1653L7.2893 10.1023L9.33075 8.06175L4.31197 8.06197C4.0272 8.06197 3.79185 7.85036 3.75461 7.5758L3.74947 7.49947C3.74947 7.2147 3.96109 6.97935 4.23564 6.94211L4.31197 6.93697L9.32925 6.93675L7.28975 4.89722C7.09005 4.69752 7.0719 4.38502 7.23529 4.16481Z" fill="#FFBF30"/>
</svg>
