<svg width="41" height="41" viewBox="0 0 41 41" fill="none" xmlns="http://www.w3.org/2000/svg">
<path d="M22.3301 0C22.4542 0.54635 22.5701 1.0927 22.6943 1.65561C23.0667 1.81289 23.4391 1.97017 23.8364 2.13573C24.2999 1.82945 24.7633 1.52316 25.2185 1.22515C26.0958 2.1109 26.9566 2.98009 27.8504 3.87412C27.5608 4.31286 27.2545 4.77643 26.9483 5.24C27.1056 5.62079 27.2545 5.9933 27.4201 6.39064C27.9415 6.49826 28.4877 6.61415 29.0505 6.73832C29.0505 7.98003 29.0505 9.20518 29.0505 10.4552C28.5043 10.5711 27.9663 10.6869 27.4283 10.8028C27.2711 11.1919 27.1138 11.5561 26.9483 11.9535C27.2463 12.4088 27.5525 12.8723 27.8422 13.3028C26.9566 14.1886 26.0958 15.0495 25.1937 15.9518C24.7799 15.6786 24.3247 15.3806 23.8198 15.0495C23.8198 15.4054 23.8198 15.7034 23.8198 16.0428C24.5813 16.2663 25.3592 16.4981 26.1372 16.7299C27.5442 17.1355 28.9512 17.5412 30.3582 17.9551C32.1872 18.4849 33.0563 19.6438 33.0563 21.5643C33.0563 24.354 33.0563 27.1437 33.0563 29.9251C33.0563 30.0741 33.0563 30.2148 33.0563 30.3969C24.6889 30.3969 16.338 30.3969 7.9375 30.3969C7.9375 30.2479 7.9375 30.1072 7.9375 29.9665C7.9375 27.152 7.9375 24.3374 7.9375 21.5229C7.9375 19.6603 8.81479 18.4849 10.5942 17.9633C12.7047 17.3425 14.8152 16.7382 16.9174 16.1173C16.9918 16.0925 17.0663 16.0677 17.1656 16.0346C17.1656 15.7283 17.1656 15.4303 17.1656 15.0495C16.6773 15.3723 16.2221 15.6703 15.8083 15.9518C14.9227 15.066 14.062 14.2051 13.1516 13.2945C13.4082 12.8972 13.7144 12.4336 14.0289 11.9618C13.8717 11.581 13.7227 11.2002 13.5572 10.8111C13.0275 10.7035 12.4895 10.5876 11.935 10.48C11.935 9.24657 11.935 8.02969 11.935 6.75488C12.4564 6.64726 13.0026 6.53137 13.5572 6.41548C13.7144 6.03469 13.8717 5.66218 14.0289 5.26483C13.731 4.80954 13.4247 4.35425 13.1516 3.94862C14.0372 3.02976 14.9145 2.15229 15.8083 1.25826C16.2056 1.52316 16.6691 1.82945 17.1325 2.13573C17.5298 1.97017 17.9022 1.81289 18.2747 1.65561C18.3988 1.0927 18.523 0.54635 18.6388 0C19.872 0 21.0969 0 22.3301 0ZM13.2344 7.81447C13.2344 8.35254 13.2344 8.84922 13.2344 9.37074C13.7061 9.47007 14.1613 9.56113 14.542 9.64391C14.8814 10.4634 15.2041 11.2333 15.5352 12.0528C15.3117 12.3839 15.0634 12.773 14.8152 13.1455C15.1793 13.5263 15.5269 13.8823 15.9076 14.2713C16.2966 14.0147 16.6939 13.7498 17.0746 13.5015C17.5712 13.7581 18.0264 13.9982 18.4899 14.2382C18.4899 14.9087 18.4899 15.5544 18.4899 16.1918C19.9796 17.4749 20.9976 17.508 22.4873 16.1587C22.4873 15.5213 22.4873 14.8591 22.4873 14.2134C22.9425 13.9816 23.3729 13.7664 23.8364 13.5263C24.2337 13.7581 24.6558 14.0064 25.0365 14.2382C25.4172 13.8657 25.7731 13.5098 26.1372 13.1455C25.8889 12.773 25.6324 12.3839 25.4172 12.0528C25.7565 11.225 26.0793 10.4552 26.4103 9.64391C26.8242 9.55285 27.2794 9.45352 27.7263 9.36246C27.7263 8.81611 27.7263 8.3277 27.7263 7.81447C27.2628 7.71513 26.8076 7.62407 26.4103 7.54129C26.071 6.72177 25.7565 5.95191 25.4172 5.13238C25.6406 4.79298 25.8972 4.39564 26.1372 4.0314C25.7565 3.64234 25.4172 3.28638 25.0447 2.91387C24.6475 3.17049 24.2502 3.42711 23.9192 3.64234C23.0832 3.29466 22.3135 2.98009 21.519 2.64897C21.428 2.24335 21.3369 1.78806 21.2376 1.34932C20.6914 1.34932 20.1865 1.34932 19.6817 1.34932C19.5823 1.82117 19.4913 2.2599 19.4085 2.64069C18.5975 2.98009 17.8278 3.29466 17.0001 3.64234C16.6691 3.41883 16.2718 3.16221 15.9407 2.94698C15.5352 3.33605 15.171 3.692 14.8069 4.04796C15.0469 4.42047 15.3035 4.80954 15.5104 5.1241C15.171 5.96019 14.8483 6.73004 14.5172 7.53301C14.153 7.62407 13.7061 7.71513 13.2344 7.81447ZM14.0372 18.3276C12.9447 18.6421 11.9102 18.9401 10.8756 19.2464C9.7583 19.5776 9.26172 20.2398 9.26172 21.4153C9.26172 23.8407 9.26172 26.2662 9.26172 28.6917C9.26172 28.8076 9.27827 28.9235 9.28655 29.0394C11.4632 29.0394 13.6068 29.0394 15.7669 29.0394C15.618 27.8308 15.4855 26.647 15.3117 25.4798C15.2124 24.8093 15.1628 24.1636 15.4607 23.5262C15.5683 23.3027 15.618 23.0543 15.7007 22.8143C15.2952 22.6073 14.9393 22.4169 14.5917 22.2348C14.4096 20.9269 14.2193 19.6521 14.0372 18.3276ZM31.6989 29.0559C31.6989 26.3407 31.7238 23.6752 31.6824 21.0097C31.6741 20.2067 31.1775 19.6521 30.4327 19.3623C30.0106 19.1968 29.5719 19.0892 29.1333 18.965C28.4132 18.7498 27.6932 18.5428 26.94 18.3276C26.7497 19.6686 26.5593 20.9517 26.3772 22.2431C25.9965 22.4418 25.6406 22.6239 25.2682 22.8225C25.3841 23.1619 25.4999 23.46 25.5827 23.7662C25.6655 24.056 25.7731 24.3623 25.7565 24.652C25.7069 25.3722 25.591 26.0758 25.4999 26.796C25.4089 27.541 25.3179 28.2943 25.2185 29.0642C27.387 29.0559 29.5223 29.0559 31.6989 29.0559ZM22.3632 29.0559C21.9825 26.3987 21.6101 23.7911 21.2376 21.1669C20.7162 21.1669 20.2445 21.1669 19.7396 21.1669C19.3672 23.7994 18.9947 26.4069 18.614 29.0559C19.872 29.0559 21.0804 29.0559 22.3632 29.0559ZM23.704 29.0559C23.7454 29.0642 23.7867 29.0642 23.8281 29.0725C23.8529 28.9648 23.9026 28.8655 23.9109 28.7496C24.0516 27.599 24.1674 26.44 24.3495 25.2977C24.4406 24.7348 24.3661 24.2215 24.1674 23.7C23.9771 23.1951 23.8198 22.6735 23.646 22.1437C24.1757 21.8706 24.6723 21.6222 25.1689 21.3656C25.3344 20.215 25.4917 19.0892 25.6489 17.9468C24.9206 17.7398 24.2502 17.5412 23.555 17.3425C23.1991 18.4104 22.8515 19.4451 22.5122 20.4799C22.4791 20.5875 22.5039 20.7199 22.5205 20.8358C22.777 22.6322 23.0336 24.4202 23.2902 26.2165C23.4309 27.1602 23.5633 28.1039 23.704 29.0559ZM17.1243 29.0642C17.1656 29.0559 17.207 29.0559 17.2484 29.0476C17.265 28.9731 17.2898 28.8986 17.2981 28.8241C17.6126 26.6222 17.8691 24.4119 18.2664 22.2182C18.4899 21.0014 18.374 19.8838 17.894 18.7663C17.7367 18.4021 17.6374 18.013 17.505 17.6322C17.4719 17.5412 17.4222 17.4501 17.3726 17.3425C16.6773 17.5494 16.007 17.7481 15.3035 17.9551C15.469 19.114 15.6262 20.2315 15.7835 21.3656C16.2801 21.6222 16.7767 21.8706 17.3063 22.1437C17.0829 22.8225 16.8429 23.4848 16.6442 24.1636C16.5697 24.3954 16.5449 24.6603 16.5697 24.9086C16.6856 25.993 16.8346 27.0775 16.967 28.1619C17.0249 28.4599 17.0746 28.7579 17.1243 29.0642ZM21.3287 19.8259C21.5107 19.2878 21.6763 18.7663 21.8418 18.2613C21.3618 18.3441 20.9148 18.4849 20.4762 18.4849C20.0293 18.4849 19.5823 18.3441 19.1106 18.2613C19.2927 18.7911 19.4665 19.3127 19.6403 19.8342C20.2196 19.8259 20.7493 19.8259 21.3287 19.8259Z" fill="white"/>
<path d="M0 33.2197C0.488305 31.4979 1.78769 30.5128 3.29399 29.6685C3.29399 28.6171 3.29399 27.5493 3.29399 26.4649C3.74919 26.4649 4.17129 26.4649 4.60993 26.4649C4.60993 27.8059 4.60993 29.1304 4.60993 30.4218C3.98093 30.8108 3.36848 31.1833 2.76431 31.5724C2.5574 31.7131 2.36704 31.887 2.18496 32.0608C1.04282 33.1535 1.06765 34.3373 2.24289 35.4051C3.24433 36.3157 4.44441 36.8952 5.69414 37.3753C8.40879 38.4183 11.2476 38.9647 14.1195 39.2958C17.5459 39.6932 20.9806 39.7511 24.4235 39.5193C28.1314 39.2627 31.7812 38.7164 35.2821 37.3753C36.507 36.9117 37.6823 36.3488 38.6672 35.4548C38.8989 35.2396 39.1224 34.9995 39.2962 34.7346C39.8093 33.9648 39.7514 33.2115 39.1555 32.4499C38.6341 31.7876 37.9471 31.3323 37.2271 30.9184C36.954 30.7612 36.6643 30.6204 36.3663 30.4549C36.3663 29.1304 36.3663 27.8059 36.3663 26.4483C36.7967 26.4483 37.2188 26.4483 37.6657 26.4483C37.6657 27.5162 37.6657 28.5675 37.6657 29.5277C38.4106 30.0989 39.1224 30.5956 39.7597 31.1751C40.1321 31.5145 40.4383 31.9698 40.67 32.425C41.2908 33.6585 40.9514 34.7843 40.1238 35.7942C39.2051 36.9117 37.9885 37.6319 36.6974 38.2279C34.1979 39.3869 31.5412 39.9912 28.8349 40.3968C25.4664 40.8935 22.0731 41.0342 18.6632 40.9431C15.154 40.8438 11.6697 40.5044 8.25981 39.6187C6.32314 39.1137 4.43613 38.4597 2.7312 37.3836C1.48975 36.5972 0.4552 35.6369 0.0165527 34.1717C0 33.8571 0 33.5343 0 33.2197Z" fill="#FFBF30"/>
<path d="M5.95049 0.786438C7.68852 3.4023 9.39345 5.95193 11.148 8.58435C10.2542 8.58435 9.45139 8.58435 8.59892 8.58435C8.59892 11.6886 8.59892 14.7432 8.59892 17.8226C8.14372 17.8226 7.73818 17.8226 7.30781 17.8226C7.30781 14.3127 7.30781 10.8194 7.30781 7.29297C7.73818 7.29297 8.16027 7.29297 8.69824 7.29297C7.76301 5.89399 6.87744 4.56122 5.95876 3.17879C5.04836 4.54467 4.16279 5.86915 3.22756 7.27642C3.7407 7.27642 4.17107 7.27642 4.61799 7.27642C4.61799 11.4817 4.61799 15.629 4.61799 19.8176C4.18762 19.8176 3.7738 19.8176 3.3186 19.8176C3.3186 16.0842 3.3186 12.3757 3.3186 8.61746C2.47441 8.61746 1.67161 8.61746 0.75293 8.61746C2.49924 5.96021 4.20417 3.4023 5.95049 0.786438Z" fill="#FFBF30"/>
<path d="M37.6906 19.8176C37.2189 19.8176 36.805 19.8176 36.3664 19.8176C36.3664 15.6455 36.3664 11.4816 36.3664 7.29294C36.7968 7.29294 37.2271 7.29294 37.7568 7.29294C36.8216 5.89395 35.936 4.56118 35.0174 3.17875C34.0987 4.55291 33.2131 5.88567 32.2944 7.2681C32.791 7.2681 33.2048 7.2681 33.66 7.2681C33.66 10.7945 33.66 14.2962 33.66 17.8226C33.2545 17.8226 32.8407 17.8226 32.3855 17.8226C32.3855 14.7597 32.3855 11.7051 32.3855 8.60087C31.5413 8.60087 30.7219 8.60087 29.8115 8.60087C31.5744 5.96017 33.2793 3.40226 35.0174 0.794678C36.7471 3.3857 38.452 5.95189 40.2066 8.57603C39.3293 8.57603 38.5265 8.57603 37.6823 8.57603C37.6906 12.3343 37.6906 16.0511 37.6906 19.8176Z" fill="#FFBF30"/>
<path d="M2.65723 33.7247C3.0876 33.7247 3.49314 33.7247 3.93179 33.7247C4.16352 34.2876 4.67666 34.5525 5.18979 34.7926C6.71265 35.5045 8.32654 35.8853 9.97353 36.175C15.0966 37.0856 20.2611 37.1601 25.4421 36.8373C28.1567 36.6717 30.8631 36.3488 33.4867 35.5955C34.4385 35.3224 35.3571 34.9085 36.2675 34.5028C36.582 34.3621 36.8221 34.0393 37.1779 33.7164C37.4511 33.7164 37.8732 33.7164 38.3284 33.7164C38.2787 34.536 37.7904 35.0409 37.1779 35.4631C35.953 36.2992 34.5626 36.7214 33.1473 37.0442C28.4629 38.1203 23.7123 38.3852 18.9286 38.2942C16.007 38.2362 13.0937 38.0045 10.2135 37.5243C8.29343 37.2015 6.38159 36.8207 4.627 35.9267C4.09731 35.6618 3.61728 35.281 3.17036 34.9002C2.83103 34.627 2.65723 34.2131 2.65723 33.7247Z" fill="white"/>
<path d="M33.0388 31.7545C33.0388 32.185 33.0388 32.5906 33.0388 33.0211C24.6797 33.0211 16.3288 33.0211 7.95312 33.0211C7.95312 32.6072 7.95312 32.2015 7.95312 31.7545C16.2957 31.7545 24.6466 31.7545 33.0388 31.7545Z" fill="#FFBF30"/>
<path d="M3.32715 21.1587C3.7658 21.1587 4.17134 21.1587 4.60171 21.1587C4.60171 21.5891 4.60171 22.0031 4.60171 22.4501C4.18789 22.4501 3.77407 22.4501 3.32715 22.4501C3.32715 22.0279 3.32715 21.614 3.32715 21.1587Z" fill="#FFBF30"/>
<path d="M37.6578 21.1752C37.6578 21.614 37.6578 22.0196 37.6578 22.4501C37.2275 22.4501 36.8219 22.4501 36.375 22.4501C36.375 22.0444 36.375 21.6222 36.375 21.1752C36.7805 21.1752 37.2026 21.1752 37.6578 21.1752Z" fill="#FFBF30"/>
<path d="M3.31836 23.8076C3.75701 23.8076 4.16255 23.8076 4.6012 23.8076C4.6012 24.2381 4.6012 24.652 4.6012 25.099C4.1791 25.099 3.75701 25.099 3.31836 25.099C3.31836 24.6685 3.31836 24.2629 3.31836 23.8076Z" fill="#FFBF30"/>
<path d="M37.6661 23.8242C37.6661 24.2629 37.6661 24.6602 37.6661 25.0907C37.2357 25.0907 36.8219 25.0907 36.375 25.0907C36.375 24.6768 36.375 24.2629 36.375 23.8242C36.8054 23.8242 37.2275 23.8242 37.6661 23.8242Z" fill="#FFBF30"/>
<path d="M16.7517 5.9436C17.0828 6.17539 17.4138 6.41545 17.7697 6.66379C16.8759 8.26973 16.9586 9.75978 18.3077 11.0512C19.2429 11.9452 20.8568 12.268 22.4045 11.2995C22.6445 11.6389 22.8928 11.9866 23.1328 12.326C21.7589 13.4683 19.0691 13.7084 17.2152 11.8624C15.4441 10.0909 15.5516 7.44193 16.7517 5.9436Z" fill="#FFBF30"/>
<path d="M18.5564 5.87741C18.2999 5.52145 18.0681 5.19033 17.8281 4.85921C19.5 3.51817 22.1732 3.74168 23.7623 5.33934C25.3513 6.937 25.5665 9.60252 24.2175 11.2499C23.8781 11.0098 23.5388 10.7697 23.2078 10.5297C24.052 8.72505 23.9195 7.36746 22.8188 6.27476C21.9911 5.44695 20.4352 4.77643 18.5564 5.87741Z" fill="#FFBF30"/>
</svg>
