<svg width="42" height="40" viewBox="0 0 42 40" fill="none" xmlns="http://www.w3.org/2000/svg">
<path d="M2.66999 24.3522C1.79285 23.175 1.40044 21.8593 1.3889 20.4513C1.35427 18.0622 3.27014 16.1002 5.64765 16.1002C8.03671 16.0886 9.94103 18.016 9.94103 20.4166C9.94103 21.49 9.69866 22.5056 9.21393 23.452C8.6484 24.5715 7.81743 25.3794 6.64021 25.7026C8.39449 27.4569 10.1603 29.2227 12.03 31.0924C12.5725 31.0924 13.3111 31.0924 14.0382 31.0924C15.1923 31.0924 16.3465 31.0924 17.4891 31.0924C19.3357 31.1039 20.3975 32.4889 19.9243 34.2778C19.9128 34.3355 19.9012 34.3817 19.8897 34.474C20.5129 34.474 21.1246 34.474 21.7247 34.474C21.8402 34.474 21.944 34.4624 21.9787 34.4624C21.9787 33.9315 21.8979 33.4006 21.9902 32.9159C22.2095 31.8079 23.1559 31.1039 24.3562 31.1039C26.0989 31.0924 27.8417 31.1039 29.5844 31.1039C29.7575 31.1039 29.9306 31.1039 30.0345 31.1039C31.8465 29.2919 33.6123 27.5261 35.3666 25.7603C32.816 24.7793 32.0658 22.6672 32.0658 20.1627C32.0658 18.0622 33.8893 16.2502 36.0014 16.1233C38.2173 15.9848 40.214 17.5313 40.5256 19.6664C40.768 21.3861 40.3178 22.9442 39.3253 24.3869C39.4638 24.433 39.6023 24.4792 39.7292 24.5138C41.0565 24.9524 41.9913 26.1758 41.9913 27.5723C42.0029 31.3924 42.0029 35.2011 41.9913 39.0213C41.9913 39.5291 41.7144 39.8292 41.2873 39.8176C40.8603 39.8061 40.6179 39.5176 40.6179 38.9867C40.6179 35.305 40.5718 31.6117 40.641 27.93C40.6641 26.4066 39.3368 25.137 37.5018 26.0142C37.017 26.245 36.6015 26.6259 36.2091 27.0067C34.4895 28.7033 32.7814 30.423 31.0732 32.1311C30.9578 32.258 30.8655 32.4081 30.7962 32.5004C28.7188 32.5004 26.7452 32.5004 24.7717 32.5004C24.587 32.5004 24.3908 32.5004 24.2061 32.512C23.6868 32.5697 23.329 32.9505 23.3059 33.4468C23.2828 33.9662 23.5944 34.3586 24.1138 34.4624C24.2523 34.4855 24.4023 34.4971 24.5408 34.4971C26.6183 34.4971 28.6842 34.4971 30.7616 34.5086C31.281 34.5086 31.6965 34.3355 32.0658 33.9662C33.4046 32.6043 34.7665 31.254 36.1283 29.9036C36.2091 29.8228 36.2899 29.7305 36.3707 29.6612C36.6939 29.3843 37.0632 29.3727 37.3402 29.6382C37.6287 29.9152 37.6403 30.3076 37.3402 30.6423C36.9939 31.0116 36.6362 31.3578 36.2784 31.7156C35.8744 32.108 35.482 32.5004 35.055 32.9159C35.055 33.2275 35.055 33.5391 35.055 33.8623C35.055 35.5012 35.055 37.14 35.055 38.7905C35.055 38.9059 35.055 39.0213 35.055 39.1367C35.0204 39.5868 34.7434 39.8523 34.3394 39.8407C33.9355 39.8292 33.6816 39.5522 33.6816 39.0905C33.67 37.7056 33.6816 36.3206 33.6816 34.9472C33.6816 34.7856 33.6816 34.6356 33.6816 34.3701C33.2545 34.7741 32.8852 35.1203 32.4813 35.5012C32.4813 36.6091 32.4813 37.7633 32.4813 38.9174C32.4813 39.633 32.262 39.8638 31.558 39.8638C24.5177 39.8638 17.4775 39.8638 10.4373 39.8638C9.75637 39.8638 9.52555 39.633 9.52555 38.952C9.52555 37.7979 9.52555 36.6438 9.52555 35.5012C9.14468 35.1434 8.77536 34.7856 8.32524 34.3586C8.32524 34.6009 8.32524 34.7279 8.32524 34.8664C8.32524 36.2514 8.32524 37.6363 8.32524 39.0097C8.32524 39.5406 8.08288 39.8292 7.65585 39.8407C7.21728 39.8523 6.95183 39.5406 6.95183 38.9982C6.95183 37.1516 6.95183 35.3165 6.95183 33.4699C6.95183 33.2968 6.95183 33.1237 6.95183 32.9044C6.2478 32.2119 5.53224 31.5079 4.81668 30.8038C4.71281 30.7 4.60893 30.5961 4.53968 30.4807C4.37811 30.1806 4.42427 29.8921 4.67818 29.6612C4.90901 29.442 5.19754 29.3958 5.47453 29.5689C5.61303 29.6497 5.7169 29.7651 5.83232 29.8805C7.22882 31.277 8.62532 32.662 10.0103 34.07C10.3219 34.3817 10.6797 34.5432 11.1182 34.5432C13.2649 34.5432 15.4116 34.5548 17.5583 34.5317C17.8238 34.5317 18.1354 34.4278 18.3547 34.2778C18.7125 34.0354 18.7817 33.6315 18.6547 33.2275C18.5163 32.8005 18.2046 32.5581 17.7545 32.5466C16.9235 32.535 16.081 32.535 15.2501 32.535C13.9459 32.535 12.6302 32.535 11.3029 32.535C10.2757 31.5079 9.27164 30.4922 8.24446 29.4766C7.33269 28.5764 6.43247 27.6646 5.5207 26.7644C5.01288 26.2566 4.42427 25.8988 3.68563 25.7949C2.41608 25.6218 1.40044 26.4758 1.40044 27.7569C1.3889 31.4271 1.40044 35.0972 1.40044 38.7674C1.40044 38.8943 1.41198 39.0213 1.40044 39.1598C1.37736 39.5753 1.10036 39.8407 0.7195 39.8523C0.327095 39.8523 0.0501023 39.5983 0.0270196 39.1829C0.0154783 39.0559 0.0270196 38.9289 0.0270196 38.7905C0.0270196 35.2819 0.073185 31.7618 0.00393696 28.2532C-0.0653111 26.3027 0.777207 24.8831 2.66999 24.3522ZM10.9105 38.3865C17.6391 38.3865 24.3331 38.3865 31.0501 38.3865C31.0501 37.5324 31.0501 36.7015 31.0501 35.882C24.3215 35.882 17.616 35.882 10.9105 35.882C10.9105 36.7361 10.9105 37.5555 10.9105 38.3865ZM8.54453 20.6821C8.56761 18.9047 7.4481 17.6121 5.93619 17.4851C4.35502 17.3466 2.97006 18.4315 2.79694 20.0358C2.66999 21.3053 2.99314 22.5056 3.81258 23.5097C4.86284 24.8023 6.61713 24.7446 7.62122 23.4058C8.256 22.5402 8.48682 21.5477 8.54453 20.6821ZM33.4161 20.6475C33.4507 21.4554 33.6816 22.4133 34.2471 23.2558C35.3204 24.837 37.2478 24.8485 38.3327 23.2673C38.8983 22.4364 39.1522 21.5015 39.1868 20.509C39.2445 18.8355 37.9634 17.4851 36.3245 17.4736C34.6857 17.462 33.4161 18.7662 33.4161 20.6475Z" fill="#FFBF30"/>
<path d="M18.0542 25.818C17.1079 25.2063 16.9809 24.9293 17.004 23.6482C15.8729 22.7249 15.8037 21.7554 16.7962 20.6936C16.6231 20.0242 16.1961 19.4818 15.7575 18.9509C15.192 18.2584 14.5688 17.6121 14.084 16.8619C10.8178 11.8876 14.0956 4.97432 20.0278 4.35109C23.3979 3.9933 26.5602 5.63217 28.1645 8.55213C29.7687 11.4721 29.4456 15.0037 27.3219 17.6583C26.9526 18.1199 26.5256 18.5354 26.1794 19.0086C25.7869 19.528 25.4407 20.0935 25.0945 20.6128C26.1793 21.6054 26.0524 22.9211 24.979 23.6367C24.9329 25.0332 24.829 25.2525 23.9403 25.7949C23.9288 25.818 23.9057 25.8526 23.9057 25.8757C23.975 27.3184 23.3056 28.0108 21.8629 28.0108C21.2281 28.0108 20.5933 28.0108 19.9586 28.0108C18.7006 28.0108 17.9965 27.2491 18.0542 25.9911C18.0542 25.9219 18.0542 25.8642 18.0542 25.818ZM22.6362 14.6344C22.6362 16.5734 22.6362 18.4546 22.6362 20.3589C23.0401 20.3589 23.4094 20.3589 23.8018 20.3589C24.125 19.2394 24.8406 18.3738 25.6023 17.5428C25.7639 17.3582 25.9254 17.1735 26.087 16.9889C27.0334 15.8578 27.6105 14.5652 27.7605 13.0879C28.1991 8.7945 24.2981 5.08973 20.0163 5.74759C14.8227 6.55548 12.4336 12.5224 15.6536 16.6888C16.5654 17.8775 17.7657 18.8586 18.1697 20.3474C18.6082 20.3474 18.9776 20.3474 19.3584 20.3474C19.3584 18.4315 19.3584 16.5503 19.3584 14.6344C18.6775 14.646 18.0081 14.6575 17.4541 14.2074C16.8886 13.7457 16.6231 13.1571 16.6693 12.43C16.727 11.4144 17.5695 10.5834 18.6198 10.5372C19.1276 10.5142 19.5892 10.6527 19.9932 10.9643C20.7434 11.5413 20.8242 12.3608 20.778 13.2379C20.9511 13.2379 21.0665 13.2379 21.2397 13.2379C21.2397 12.5685 21.205 11.8876 21.6667 11.3336C22.1168 10.7796 22.6939 10.5026 23.3979 10.5372C24.4251 10.5834 25.2676 11.4028 25.3368 12.3954C25.3715 12.9378 25.2445 13.4226 24.9098 13.8496C24.3097 14.5883 23.5018 14.6806 22.6362 14.6344ZM24.3789 21.7901C22.0822 21.7901 19.8778 21.7901 17.5926 21.7901C17.581 21.9632 17.5118 22.1478 17.5695 22.2633C17.6272 22.3671 17.8234 22.4479 17.9619 22.4595C18.6775 22.4825 19.393 22.471 20.1201 22.471C21.4012 22.471 22.6823 22.4825 23.9519 22.4595C24.1019 22.4595 24.3097 22.3787 24.3904 22.2633C24.4597 22.1709 24.3904 21.9747 24.3789 21.7901ZM18.3659 24.4099C18.5621 24.4676 18.7006 24.5369 18.8275 24.5369C20.2702 24.5484 21.7013 24.5484 23.144 24.5369C23.2825 24.5369 23.4787 24.4446 23.5364 24.3407C23.5941 24.2253 23.5248 24.0406 23.5133 23.8906C21.7821 23.8906 20.1317 23.8906 18.4467 23.8906C18.4236 24.0637 18.4005 24.2137 18.3659 24.4099ZM20.778 14.646C20.778 16.5734 20.778 18.4546 20.778 20.382C20.928 20.3705 21.055 20.3589 21.1819 20.3589C21.1819 18.4431 21.1819 16.5503 21.1819 14.6575C21.0435 14.646 20.928 14.646 20.778 14.646ZM22.44 25.9219C21.5051 25.9219 20.6857 25.9103 19.8662 25.9334C19.7162 25.9334 19.4854 26.1065 19.4507 26.245C19.393 26.5105 19.6123 26.6143 19.8662 26.6143C20.6164 26.6143 21.3666 26.6259 22.1168 26.6028C22.2553 26.6028 22.44 26.4989 22.4977 26.3951C22.5438 26.2912 22.463 26.1065 22.44 25.9219ZM19.3469 13.2033C19.4277 12.2915 19.243 11.9222 18.7236 11.9107C18.3197 11.8991 18.0081 12.2107 18.0312 12.6147C18.0658 13.1456 18.4466 13.3187 19.3469 13.2033ZM22.6131 13.2379C22.8901 13.2379 23.1324 13.261 23.3748 13.2379C23.721 13.2033 23.9519 12.8917 23.9403 12.5454C23.9288 12.1992 23.6518 11.9337 23.3056 11.9222C22.9478 11.9107 22.6708 12.1415 22.6246 12.4993C22.59 12.7186 22.6131 12.9494 22.6131 13.2379Z" fill="white"/>
<path d="M28.0499 6.08228C27.8884 5.95533 27.6229 5.83991 27.5421 5.65525C27.4613 5.44751 27.4613 5.10127 27.5883 4.95123C27.9922 4.46649 28.4423 4.01638 28.9155 3.60089C29.1925 3.35852 29.5388 3.39315 29.8158 3.67014C30.0697 3.92405 30.1158 4.25875 29.8735 4.53574C29.4464 5.02048 28.9732 5.45905 28.5116 5.90916C28.4193 5.98995 28.2577 6.00149 28.0499 6.08228Z" fill="#FFBF30"/>
<path d="M14.5813 5.40135C14.4428 5.57447 14.3274 5.85146 14.1312 5.93225C13.935 6.01304 13.5772 5.98996 13.4156 5.863C12.9424 5.47059 12.5154 5.02048 12.0999 4.55883C11.846 4.28184 11.8691 3.9356 12.1345 3.6586C12.4 3.38161 12.7462 3.34699 13.0232 3.58936C13.4964 4.00484 13.935 4.4665 14.362 4.92815C14.4659 5.03202 14.489 5.18206 14.5813 5.40135Z" fill="#FFBF30"/>
<path d="M10.0332 13.1687C9.74464 13.1687 9.4561 13.1802 9.16757 13.1687C8.77516 13.1456 8.49817 12.8917 8.47509 12.5339C8.452 12.1877 8.70591 11.8414 9.07524 11.8183C9.71001 11.7837 10.3448 11.7837 10.968 11.8299C11.3489 11.853 11.5913 12.2107 11.5451 12.5685C11.4989 12.9494 11.2681 13.1687 10.8872 13.1802C10.6102 13.1802 10.3217 13.1687 10.0332 13.1687Z" fill="#FFBF30"/>
<path d="M31.8926 13.1687C31.6156 13.1687 31.3502 13.1802 31.0732 13.1687C30.6808 13.1456 30.4038 12.8917 30.4038 12.5224C30.3922 12.1299 30.6 11.853 30.9693 11.8183C31.6156 11.7722 32.2619 11.7722 32.9082 11.8183C33.2776 11.8414 33.4853 12.1415 33.4853 12.5108C33.4853 12.8686 33.1968 13.1456 32.8159 13.1571C32.5043 13.1802 32.1927 13.1687 31.8926 13.1687Z" fill="#FFBF30"/>
<path d="M21.6673 1.50037C21.6673 1.80045 21.6788 2.10052 21.6673 2.4006C21.6442 2.80455 21.3441 3.07 20.9633 3.05846C20.5939 3.04691 20.3169 2.79301 20.3054 2.4006C20.2823 1.82353 20.2823 1.24647 20.3054 0.680939C20.3169 0.265451 20.6055 0 20.9979 0C21.3787 0 21.6557 0.265451 21.6788 0.680939C21.6788 0.957932 21.6673 1.22338 21.6673 1.50037Z" fill="#FFBF30"/>
</svg>
