<svg width="41" height="41" viewBox="0 0 41 41" fill="none" xmlns="http://www.w3.org/2000/svg">
<path d="M6.82751 35.7792C6.82751 36.1075 6.83498 36.406 6.82751 36.697C6.82005 37.182 6.56635 37.4282 6.0888 37.4282C4.3129 37.4282 2.52954 37.4282 0.753638 37.4282C0.268624 37.4282 0 37.1596 0 36.6597C0 31.4961 0 26.34 0 21.1765C0 20.684 0.268624 20.4079 0.753638 20.4079C2.52954 20.4005 4.3129 20.4005 6.0888 20.4079C6.57381 20.4079 6.82005 20.6616 6.82751 21.1467C6.83498 21.5347 6.83497 21.9152 6.83497 22.3032C6.83497 22.3256 6.84244 22.348 6.86482 22.4375C6.97675 22.4375 7.11106 22.4375 7.23791 22.4375C8.71534 22.4375 10.2002 22.4301 11.6777 22.4375C13.5804 22.445 15.2593 23.0569 16.692 24.3104C18.9081 26.2505 21.1243 28.1906 23.3255 30.1455C24.4149 31.1081 24.594 32.787 23.7657 34.0182C22.9598 35.2195 21.3257 35.6822 20.0423 34.9957C19.2066 34.548 18.4306 33.9734 17.6321 33.4436C16.2144 32.5035 14.7967 31.5633 13.3864 30.6082C13.2148 30.4888 13.0432 30.3022 12.976 30.1157C12.8865 29.8396 12.9462 29.5486 13.2372 29.3695C13.5207 29.1904 13.7968 29.2277 14.0729 29.4068C15.3563 30.2649 16.6323 31.1156 17.9157 31.9737C18.7439 32.5258 19.5647 33.0855 20.4005 33.6227C21.4003 34.2644 22.5793 33.8018 22.8554 32.6676C22.9972 32.1005 22.8255 31.5782 22.4002 31.2051C20.0945 29.1606 17.7888 27.1161 15.4458 25.1163C14.4161 24.2358 13.1626 23.8403 11.797 23.8478C10.2898 23.8478 8.78996 23.8478 7.28268 23.8478C7.14837 23.8478 7.01406 23.8478 6.8499 23.8478C6.8499 27.3101 6.8499 30.7499 6.8499 34.2047C8.19302 34.8539 9.5436 35.5031 10.8942 36.1523C12.6178 36.9731 14.3117 37.8759 16.0801 38.5773C19.714 40.01 23.2956 39.719 26.7579 37.9132C28.7949 36.8537 30.8395 35.809 32.8691 34.7345C33.7122 34.2868 34.0853 33.5406 34.0107 32.6005C33.9361 31.7125 33.466 31.0633 32.6154 30.7499C32.0184 30.5261 31.4513 30.6529 30.8917 30.929C29.5113 31.608 28.1308 32.2796 26.743 32.9437C26.5937 33.0183 26.4072 33.078 26.2505 33.0706C25.9222 33.0482 25.6983 32.8542 25.6386 32.5184C25.5715 32.1528 25.7431 31.8991 26.0714 31.7424C27.1086 31.235 28.1458 30.735 29.183 30.2276C29.5934 30.0262 30.0112 29.8247 30.4216 29.6232C32.593 28.5711 35.0106 29.8545 35.3613 32.2423C35.5926 33.8391 34.8912 35.2494 33.466 35.9956C31.1678 37.1969 28.877 38.4132 26.549 39.5548C24.5044 40.5547 22.3107 40.9352 20.0423 40.8457C17.7441 40.7487 15.6249 40.0249 13.5804 39.0027C11.4314 37.9207 9.24512 36.9059 7.08121 35.8687C7.02152 35.8314 6.95436 35.8165 6.82751 35.7792ZM1.41773 21.7884C1.41773 26.549 1.41773 31.2797 1.41773 36.0179C2.76831 36.0179 4.08905 36.0179 5.4247 36.0179C5.4247 31.2648 5.4247 26.534 5.4247 21.7884C4.08158 21.7884 2.76831 21.7884 1.41773 21.7884Z" fill="#FFBF30"/>
<path d="M32.6902 22.5047C32.2126 22.7061 31.7798 22.8852 31.3321 23.0718C31.3321 23.7508 31.3321 24.4223 31.3321 25.0939C31.3321 25.6237 31.0933 25.8774 30.5561 25.8774C28.8026 25.8849 27.0491 25.8849 25.2956 25.8774C24.7658 25.8774 24.5195 25.6386 24.5121 25.1014C24.5046 24.4298 24.5121 23.7583 24.5121 23.0792C24.0644 22.8927 23.6316 22.7136 23.1466 22.5121C22.6989 22.9748 22.2437 23.4449 21.7811 23.915C21.3632 24.3328 21.005 24.3328 20.5946 23.9224C19.3709 22.7061 18.1472 21.4824 16.9309 20.2587C16.5429 19.8707 16.5429 19.4901 16.9384 19.0947C17.401 18.6246 17.8711 18.1694 18.3412 17.7068C18.1546 17.2441 17.9756 16.8114 17.7816 16.3487C17.1175 16.3487 16.431 16.3487 15.752 16.3487C15.2147 16.3487 14.9834 16.1174 14.9834 15.5727C14.9834 13.8192 14.9834 12.0657 14.9834 10.3122C14.9834 9.78983 15.2296 9.55106 15.7669 9.5436C16.4384 9.5436 17.11 9.5436 17.7816 9.5436C17.9681 9.09589 18.1472 8.66311 18.3412 8.17809C17.886 7.73785 17.4234 7.29014 16.9682 6.83498C16.5205 6.38727 16.528 6.0291 16.9682 5.58886C18.1621 4.39498 19.356 3.2011 20.5573 2.00721C20.9976 1.56697 21.3707 1.56697 21.8035 1.99975C22.2586 2.45492 22.6989 2.92501 23.1391 3.38018C23.6241 3.17871 24.0569 2.99963 24.5121 2.81308C24.5121 2.16391 24.5121 1.5222 24.5121 0.873026C24.5121 0.238776 24.7508 0 25.3926 0C27.0864 0 28.7727 0 30.4666 0C31.0859 0 31.3247 0.238776 31.3321 0.850641C31.3321 1.49981 31.3321 2.14153 31.3321 2.80562C31.7724 2.99217 32.1977 3.17125 32.6752 3.36526C33.1006 2.93247 33.5333 2.49223 33.9736 2.05198C34.4884 1.53712 34.8168 1.53712 35.3242 2.03706C36.5106 3.22348 37.697 4.4099 38.8834 5.59632C39.3087 6.02164 39.3087 6.37981 38.876 6.81259C38.4208 7.26776 37.9582 7.71546 37.4955 8.17063C37.6895 8.64072 37.8686 9.0735 38.0552 9.52867C38.7267 9.52867 39.3908 9.52867 40.0624 9.52867C40.5996 9.52867 40.8757 9.78237 40.8757 10.3196C40.8832 12.0582 40.8832 13.8043 40.8757 15.5429C40.8757 16.0876 40.6071 16.3263 40.0624 16.3263C39.4058 16.3263 38.7417 16.3263 38.0626 16.3263C37.8761 16.774 37.697 17.2143 37.4881 17.7217C37.9432 18.1619 38.4133 18.6022 38.876 19.0573C39.3087 19.4827 39.3087 19.8558 38.8909 20.2736C37.6895 21.475 36.4807 22.6838 35.2794 23.8851C34.8317 24.3328 34.4959 24.3253 34.0407 23.8702C33.593 23.4225 33.1528 22.9673 32.6902 22.5047ZM16.3638 14.9683C17.013 14.9683 17.6472 14.9683 18.274 14.9683C18.6471 14.9683 18.8635 15.1548 18.9978 15.4981C19.2441 16.1323 19.5052 16.7591 19.7738 17.3859C19.9604 17.8112 19.938 18.05 19.5948 18.3858C19.1694 18.8036 18.7367 19.2066 18.3487 19.5797C19.3336 20.5721 20.2738 21.5197 21.2364 22.4898C21.6393 22.0794 22.0497 21.654 22.475 21.2362C22.8108 20.9079 23.057 20.8929 23.4823 21.0869C24.0793 21.3556 24.6837 21.6093 25.2956 21.8406C25.7283 22.0047 25.8701 22.1764 25.8701 22.6315C25.8701 23.2359 25.8701 23.8478 25.8701 24.4597C27.2356 24.4597 28.5638 24.4597 29.9293 24.4597C29.9293 23.8553 29.9293 23.2882 29.9293 22.7136C29.9368 22.1614 30.0711 22.0047 30.5785 21.8182C31.168 21.5943 31.75 21.3481 32.3245 21.0869C32.7797 20.878 33.0036 20.8929 33.3543 21.2511C33.7721 21.6764 34.1825 22.1092 34.6078 22.5494C35.5928 21.5496 36.533 20.6019 37.5105 19.6095C37.0851 19.1991 36.6524 18.7887 36.2345 18.3709C35.8763 18.0127 35.8614 17.7888 36.0629 17.3411C36.3166 16.789 36.5554 16.2293 36.7643 15.6622C36.9881 15.0653 37.1001 14.9608 37.7343 14.9608C38.3014 14.9608 38.8685 14.9608 39.4281 14.9608C39.4281 13.5655 39.4281 12.2298 39.4281 10.9091C39.3759 10.8942 39.3535 10.8867 39.3237 10.8867C38.7417 10.8867 38.1522 10.8867 37.5702 10.8793C37.1224 10.8718 36.9658 10.7375 36.8091 10.3196C36.5927 9.7376 36.3688 9.16304 36.1076 8.60341C35.839 8.03632 35.8465 7.83485 36.3017 7.38715C36.6971 6.99913 37.1001 6.61858 37.4657 6.26788C36.4733 5.27547 35.5331 4.33528 34.578 3.38018C34.19 3.76819 33.7796 4.18605 33.3692 4.59645C33.0036 4.96207 32.7797 4.977 32.3022 4.7606C31.75 4.50691 31.1903 4.26813 30.6233 4.0592C30.0487 3.85027 29.9218 3.7085 29.9218 3.08917C29.9218 2.537 29.9218 1.97737 29.9218 1.41027C28.5489 1.41027 27.2132 1.41027 25.8626 1.41027C25.8626 2.03706 25.8626 2.634 25.8626 3.23094C25.8626 3.70103 25.706 3.87265 25.2508 4.03681C24.6688 4.2532 24.0942 4.48452 23.5346 4.74568C23.0123 4.99192 22.7959 4.977 22.378 4.55914C21.9751 4.1562 21.5796 3.74581 21.199 3.36526C20.2216 4.33528 19.2814 5.27547 18.2964 6.26042C18.7143 6.66335 19.1471 7.07375 19.5724 7.48415C19.9231 7.83485 19.9455 8.07363 19.744 8.52133C19.4754 9.10335 19.2291 9.70029 18.9978 10.3047C18.8262 10.7524 18.6695 10.8942 18.177 10.8942C17.5726 10.8942 16.9682 10.8942 16.3414 10.8942C16.3638 12.2597 16.3638 13.5953 16.3638 14.9683Z" fill="#FFBF30"/>
<path d="M27.9368 20.4303C23.7806 20.4303 20.4229 17.0725 20.4229 12.9312C20.4303 8.79738 23.7881 5.43213 27.907 5.43213C32.0483 5.43213 35.4285 8.79738 35.4285 12.9387C35.4285 17.0576 32.0632 20.4228 27.9368 20.4303ZM30.5559 10.2897C31.5931 10.5285 32.6452 10.7748 33.6899 11.0135C33.4436 9.49133 31.0708 7.14087 29.8471 7.17818C30.0858 8.22283 30.3246 9.26748 30.5559 10.2897ZM29.8321 18.7066C31.4663 18.3037 33.3317 16.5278 33.6749 14.8414C32.6378 15.0877 31.5856 15.3339 30.5559 15.5727C30.3246 16.6024 30.0784 17.647 29.8321 18.7066ZM22.0943 14.7743C22.8032 16.7516 24.109 18.0574 26.0266 18.7439C25.7729 17.6545 25.5267 16.6024 25.2805 15.5279C24.788 15.4384 24.2507 15.3637 23.7209 15.2369C23.1912 15.1175 22.6763 14.9459 22.0943 14.7743ZM26.0117 7.17072C24.3552 7.54381 22.4972 9.40925 22.1614 11.021C23.2061 10.7748 24.2731 10.5285 25.2805 10.2972C25.5267 9.24509 25.7655 8.21537 26.0117 7.17072ZM29.2427 11.6179C28.3398 11.6179 27.4891 11.6179 26.6161 11.6179C26.6161 12.5133 26.6161 13.364 26.6161 14.2445C27.519 14.2445 28.3622 14.2445 29.2427 14.2445C29.2427 13.3491 29.2427 12.5133 29.2427 11.6179ZM25.1909 14.1102C25.1909 13.3118 25.1909 12.5507 25.1909 11.7522C23.9896 11.9836 22.8032 12.1403 21.7287 12.9387C22.8255 13.7371 24.0045 13.8938 25.1909 14.1102ZM30.6455 11.7522C30.6455 12.573 30.6455 13.3192 30.6455 14.1176C31.8468 13.8863 33.0482 13.7445 34.1003 12.9163C33.0332 12.1328 31.8543 11.9686 30.6455 11.7522ZM27.9368 19.1319C28.7129 18.0201 28.892 16.8561 29.1009 15.6622C28.295 15.6622 27.5414 15.6622 26.7504 15.6622C26.9668 16.8635 27.1235 18.0425 27.9368 19.1319ZM27.907 6.7454C27.1384 7.83482 26.9519 8.99885 26.7579 10.1778C27.5638 10.1778 28.3174 10.1778 29.1083 10.1778C28.8696 8.98393 28.7278 7.79751 27.907 6.7454Z" fill="white"/>
</svg>
