<svg width="36" height="41" viewBox="0 0 36 41" fill="none" xmlns="http://www.w3.org/2000/svg">
<path d="M28.0423 19.3556C30.7908 22.7121 31.2488 26.285 29.4415 30.2078C29.5165 30.2911 29.6164 30.3993 29.7247 30.4993C31.507 32.2816 33.2977 34.0722 35.08 35.8546C36.2127 36.9872 36.2127 38.2115 35.08 39.3442C34.9134 39.5108 34.7469 39.6857 34.5803 39.844C33.6641 40.7018 32.3815 40.6935 31.482 39.8106C30.4576 38.7946 29.4415 37.7701 28.4171 36.754C28.3172 36.6541 28.2172 36.5708 28.0423 36.4042C28.0423 37.1038 28.0423 37.7202 28.0423 38.3282C28.0423 39.161 27.8091 39.3942 26.9846 39.3942C18.3395 39.3942 9.69447 39.3942 1.04107 39.3942C0.249858 39.4025 0 39.1527 0 38.3531C0 25.9186 0 13.484 0 1.0494C0 0.249858 0.249858 0.00832859 1.0494 0.00832859C7.44576 0.00832859 13.8421 0.00832859 20.2468 0C20.5966 0 20.8881 0.0832859 21.1546 0.324815C23.3034 2.26538 25.4688 4.20594 27.6342 6.12984C27.9424 6.40468 28.0673 6.68785 28.059 7.10428C28.034 11.2019 28.0423 15.2913 28.0423 19.3556ZM1.59076 1.59076C1.59076 13.6922 1.59076 25.7437 1.59076 37.7951C9.89436 37.7951 18.173 37.7951 26.4599 37.7951C26.4599 36.779 26.4599 35.7963 26.4599 34.9467C26.1268 34.5803 25.8603 34.2805 25.6021 33.9973C21.6043 36.0711 16.907 35.08 14.117 31.8485C11.4268 28.7419 11.1103 24.028 13.409 20.5966C14.575 18.8559 16.1408 17.615 18.123 16.9403C21.0463 15.9492 23.8198 16.3573 26.4516 18.0147C26.4516 14.5334 26.4516 11.1187 26.4516 7.6623C26.2767 7.6623 26.1268 7.6623 25.9769 7.6623C24.2029 7.6623 22.4205 7.6623 20.6466 7.6623C19.9886 7.6623 19.7054 7.37913 19.7054 6.7295C19.7054 5.17205 19.7054 3.62293 19.7054 2.06549C19.7054 1.91557 19.7054 1.76566 19.7054 1.59909C13.6422 1.59076 7.62898 1.59076 1.59076 1.59076ZM21.1713 33.5226C25.4605 33.5309 28.9335 30.0828 28.9585 25.802C28.9751 21.5044 25.5354 17.9981 21.2712 17.9814C16.907 17.9648 13.4007 21.4378 13.4173 25.7603C13.4257 30.0579 16.882 33.5142 21.1713 33.5226ZM27.0096 33.2144C27.0512 33.2394 27.1595 33.306 27.2511 33.3893C28.8585 34.9967 30.466 36.6041 32.0734 38.2115C33.0395 39.1777 33.0562 39.1777 34.0056 38.2199C34.4803 37.7368 34.4887 37.4703 34.0139 36.9956C32.2899 35.2716 30.5659 33.5475 28.8419 31.8235C28.7503 31.7319 28.642 31.6403 28.6337 31.632C28.084 32.165 27.5759 32.6647 27.0096 33.2144ZM25.2106 6.07154C23.8697 4.87222 22.6038 3.73953 21.3045 2.57353C21.3045 3.78951 21.3045 4.93052 21.3045 6.07154C22.5954 6.07154 23.8531 6.07154 25.2106 6.07154Z" fill="#FFBF30"/>
<path d="M11.3349 15.4995C9.20279 15.4995 7.06234 15.4995 4.93022 15.4995C4.55544 15.4995 4.23895 15.4162 4.05572 15.0664C3.83085 14.6417 4.03073 14.1336 4.48048 13.9837C4.59708 13.9421 4.72201 13.9254 4.84694 13.9254C9.18613 13.9254 13.5253 13.9171 17.8645 13.9254C18.4558 13.9254 18.7973 14.3168 18.7057 14.8499C18.6391 15.2663 18.3143 15.4912 17.7729 15.4912C15.6325 15.4995 13.4837 15.4995 11.3349 15.4995Z" fill="white"/>
<path d="M11.3606 9.84437C9.17854 9.84437 7.00478 9.84437 4.82269 9.84437C4.3313 9.84437 4.02314 9.58619 3.96484 9.16976C3.91487 8.76999 4.18972 8.3952 4.58949 8.32024C4.72275 8.29526 4.86433 8.29526 5.00592 8.29526C9.2535 8.29526 13.5011 8.29526 17.7487 8.29526C18.34 8.29526 18.6481 8.50347 18.7148 8.93656C18.7981 9.47792 18.4566 9.83605 17.8569 9.83605C15.6915 9.84437 13.5261 9.84437 11.3606 9.84437Z" fill="white"/>
<path d="M27.8922 25.777C27.8672 29.5248 24.8606 32.4898 21.1128 32.4648C17.4482 32.4398 14.4416 29.3832 14.4749 25.702C14.5082 22.0041 17.5148 19.0225 21.2044 19.0391C24.9356 19.0558 27.9172 22.0624 27.8922 25.777ZM16.049 25.727C16.0407 28.5587 18.3393 30.8907 21.1461 30.8991C24.0194 30.9074 26.3598 28.6004 26.3514 25.752C26.3431 22.9119 24.0111 20.5799 21.1877 20.5799C18.3727 20.5883 16.0573 22.9036 16.049 25.727Z" fill="white"/>
</svg>
