<svg width="40" height="32" viewBox="0 0 40 32" fill="none" xmlns="http://www.w3.org/2000/svg">
<path d="M30.009 11.6663C27.9339 11.8351 25.8588 12.004 23.7891 12.1728C23.043 11.699 22.2859 11.2306 21.5452 10.7458C21.0768 10.4408 20.5485 10.3428 20.0093 10.2611C19.0398 10.114 18.054 10.0269 17.1009 10.2883C16.3983 10.479 15.7284 10.8003 15.0694 11.1053C14.6446 11.3014 14.2742 11.6118 13.8548 11.8188C13.6969 11.9005 13.4681 11.8623 13.2775 11.8515C12.6947 11.8079 12.112 11.7044 11.5292 11.7044C10.9246 11.699 10.4127 11.5192 9.9225 11.1815C9.06196 10.5933 8.16329 10.065 7.30275 9.48225C6.82891 9.16091 6.26249 9.28618 6.00106 9.82538C5.17864 11.5247 4.3181 13.2022 3.46846 14.8851C2.43364 16.933 1.39336 18.9809 0.358536 21.0233C0.0698738 21.5951 0.195145 21.9601 0.772469 22.2324C2.13953 22.8751 3.51203 23.5123 4.88454 24.1495C5.36927 24.3728 5.65793 24.2966 5.98472 23.8554C6.07731 23.7302 6.16445 23.6103 6.26793 23.4687C6.91606 23.9371 7.54785 24.4001 8.19597 24.8739C7.87463 25.6419 7.80383 26.388 8.3158 27.0961C8.81687 27.7932 9.52491 28.0274 10.3582 27.9784C10.4072 28.8226 10.8266 29.4217 11.502 29.8411C12.2046 30.2768 12.9398 30.1787 13.686 29.8792C13.9638 30.5654 14.4104 31.0829 15.1293 31.2898C15.8319 31.4913 16.5127 31.3879 17.1445 31.0121C18.7566 32.183 20.3415 31.829 21.9428 30.9467C22.4711 31.3334 23.0702 31.4968 23.7347 31.3388C24.3991 31.1809 24.8458 30.7561 25.1181 30.1243C26.3708 30.2822 27.2803 29.8138 27.8086 28.6211C28.3751 28.6864 28.936 28.6429 29.4426 28.3161C29.9382 27.9947 30.2486 27.5481 30.4175 26.9926C31.7355 26.9871 32.4054 26.3009 32.6287 24.7323C33.1353 24.4382 33.6527 24.1386 34.1919 23.8282C34.2572 23.9044 34.3008 23.9644 34.3607 24.0188C34.5949 24.2476 34.8618 24.3129 35.1831 24.2149C36.2887 23.8772 37.3998 23.545 38.5054 23.2073C38.8104 23.1147 39.1046 23.0058 39.415 22.935C39.9923 22.7934 40.0904 22.3195 39.9324 21.8729C39.11 19.5418 38.2658 17.2217 37.4379 14.8906C36.8606 13.2784 36.2942 11.6663 35.7223 10.0541C35.6678 9.90163 35.6188 9.73824 35.5317 9.60752C35.3193 9.28073 34.9598 9.18814 34.5677 9.35698C33.5546 9.79815 32.547 10.2556 31.5394 10.7077C31.2072 10.8548 30.8695 10.9909 30.5482 11.1543C30.3467 11.2578 30.1724 11.4103 29.9818 11.5356C29.9927 11.5955 30.0035 11.6282 30.009 11.6663ZM30.1179 13.1368C30.6898 16.4592 31.9152 19.5527 33.4893 22.5428C32.9827 22.8369 32.4817 23.1256 31.9697 23.4252C31.5285 22.7661 31.0166 22.276 30.1724 22.2542C29.35 22.2324 28.7454 22.5755 28.326 23.2509C27.1115 22.886 26.1747 23.2454 25.5048 24.2857C24.775 24.0352 24.0778 24.0515 23.4242 24.4436C22.7707 24.8358 22.4221 25.4403 22.3241 26.1865C21.6269 26.1974 21.1367 26.5405 20.7282 27.0198C20.2653 26.7638 20.0039 26.7911 19.5954 27.1396C18.7621 27.8368 17.9342 28.5394 17.0955 29.2256C16.8014 29.4653 16.4909 29.6886 16.1587 29.8683C15.8646 30.0317 15.467 29.9282 15.26 29.6886C15.0476 29.438 15.0803 29.1603 15.2382 28.9043C15.3635 28.7082 15.5105 28.523 15.6848 28.3705C16.1042 27.9893 16.5454 27.6244 16.9756 27.254C17.8307 26.5187 18.6858 25.778 19.5409 25.0428C20.0692 24.5852 20.5975 24.1386 21.1149 23.6702C21.5125 23.3162 21.4962 22.7607 21.0986 22.4666C20.8154 22.2542 20.396 22.325 20.042 22.6354C19.1923 23.3816 18.3427 24.1223 17.4876 24.863C16.4637 25.7453 15.4343 26.6331 14.3995 27.5045C13.9692 27.864 13.5335 28.2126 13.076 28.5394C12.8255 28.7191 12.5205 28.7627 12.2318 28.5775C11.6817 28.2126 11.7089 27.5154 12.2808 27.0416C12.6294 26.7529 12.9725 26.4588 13.3156 26.1647C14.198 25.4022 15.0803 24.6397 15.9681 23.8827C16.785 23.1801 17.6074 22.4938 18.4244 21.7858C18.7512 21.5026 18.7457 21.0015 18.4407 20.6965C18.1357 20.3915 17.7218 20.4078 17.3514 20.7346C16.5563 21.4318 15.7556 22.1235 14.955 22.8097C13.833 23.7737 12.7056 24.7378 11.5837 25.7072C11.1697 26.0612 10.7612 26.4153 10.1948 26.5024C9.92794 26.546 9.71009 26.4806 9.54125 26.2736C9.3833 26.0776 9.36696 25.8543 9.48678 25.6364C9.58482 25.4621 9.6883 25.2878 9.82991 25.1517C10.4617 24.5526 11.1044 23.9752 11.7471 23.387C12.771 22.4448 13.7895 21.4917 14.8189 20.5549C16.0879 19.3948 17.3787 18.2619 18.6314 17.0909C19.1869 16.5735 19.786 16.5245 20.4069 16.7424C20.701 17.1835 20.9461 17.592 21.2348 17.9787C22.0844 19.1116 23.1574 19.8033 24.6442 19.7543C26.0222 19.7107 26.9154 18.5887 26.5995 17.2489C26.4361 16.5626 26.0603 16.0125 25.6682 15.5877C25.4721 14.8416 25.2978 14.1934 25.1235 13.5453C26.7792 13.4037 28.4241 13.2675 30.1179 13.1368ZM10.9682 13.1423C11.8996 13.2185 12.8146 13.3002 13.735 13.3547C13.9747 13.3656 14.247 13.3274 14.4594 13.2185C14.8352 13.0279 15.162 12.7392 15.5378 12.5377C16.1859 12.2 16.8177 11.7752 17.5584 11.7044C18.2174 11.639 18.8928 11.6554 19.5573 11.6935C19.9222 11.7153 20.3252 11.7643 20.6248 11.944C21.5234 12.4778 22.3949 13.0715 23.2554 13.6706C23.4678 13.8176 23.6857 14.0464 23.7728 14.2806C23.9362 14.7054 24.0451 15.1629 24.1105 15.615C24.1704 16.018 24.2957 16.3393 24.5952 16.6334C24.824 16.8622 25.0092 17.1672 25.129 17.4667C25.325 17.9624 25.1072 18.2456 24.5734 18.2728C23.7946 18.3109 23.1683 18.0005 22.7053 17.4068C22.3186 16.9112 22.0136 16.3502 21.6487 15.8383C21.5234 15.664 21.3437 15.4897 21.1476 15.4189C20.8045 15.2936 20.4341 15.2065 20.0692 15.1683C19.3503 15.0921 18.6531 15.1738 18.0704 15.6694C17.395 16.2413 16.7197 16.8186 16.0606 17.4068C15.0639 18.3 14.0836 19.2096 13.0978 20.1192C11.8614 21.2575 10.6251 22.4067 9.38875 23.545C9.3125 23.6158 9.2199 23.6702 9.13821 23.7302C8.44651 23.2236 7.7766 22.7389 7.09579 22.2433C8.86589 19.4002 10.1295 16.372 10.9682 13.1423ZM31.4959 12.3689C32.5035 11.9168 33.4838 11.4757 34.4914 11.0236C35.7713 14.6128 37.0404 18.1693 38.3203 21.7477C37.2963 22.0527 36.2887 22.3577 35.2594 22.6627C33.4675 19.422 32.0623 16.0725 31.4959 12.3689ZM1.95435 21.154C3.66453 17.7663 5.34748 14.4385 7.04132 11.089C7.89097 11.6336 8.70794 12.1565 9.55214 12.6957C8.60991 16.2576 7.19383 19.58 5.06427 22.6082C4.02399 22.1235 3.00551 21.6442 1.95435 21.154ZM23.7728 26.4316C23.8 26.0449 24.007 25.7617 24.3937 25.631C24.715 25.522 25.0636 25.6419 25.2924 25.9686C25.6627 26.5133 26.0222 27.0688 26.3817 27.6189C26.4252 27.6843 26.4416 27.7714 26.447 27.8477C26.4742 28.1908 26.2727 28.5067 25.9405 28.632C25.5865 28.7681 25.1889 28.6374 24.9438 28.2943C24.6116 27.8204 24.2739 27.352 23.9525 26.8673C23.86 26.742 23.8273 26.5786 23.7728 26.4316ZM29.0232 26.4098C28.9905 26.7911 28.8217 27.0361 28.4894 27.1505C28.228 27.2377 27.8631 27.1396 27.7269 26.9436C27.4274 26.5024 27.1278 26.0612 26.8501 25.6092C26.7792 25.5003 26.752 25.3369 26.7629 25.2061C26.801 24.8412 27.0625 24.6506 27.3947 24.5907C27.6779 24.5417 27.923 24.6561 28.0918 24.9066C28.3533 25.2878 28.6201 25.6636 28.8707 26.0503C28.9469 26.1593 28.9742 26.29 29.0232 26.4098ZM20.9897 29.7757C20.1618 30.353 18.7784 30.462 18.4244 30.0371C19.0725 29.4979 19.7207 28.9642 20.3252 28.4577C20.5594 28.9097 20.7664 29.3346 20.9897 29.7757ZM23.0484 29.8955C23.0375 29.5851 22.9776 29.2801 22.6835 29.182C22.3295 29.0568 22.1661 28.7845 21.9864 28.5067C21.7957 28.2126 21.8502 27.9239 22.1334 27.7333C22.3567 27.5808 22.6508 27.657 22.836 27.9239C23.1083 28.3106 23.3698 28.6973 23.6421 29.084C23.7837 29.2801 23.8164 29.4816 23.6857 29.6886C23.5495 29.9173 23.3371 29.9772 23.0484 29.8955ZM29.5297 24.2585C29.546 23.9916 29.6931 23.8445 29.911 23.7519C30.1343 23.6594 30.3358 23.7302 30.4719 23.899C30.6843 24.1659 30.875 24.4545 31.0493 24.7486C31.1909 24.9828 31.0874 25.2933 30.8586 25.4349C30.6353 25.5711 30.3194 25.5057 30.1615 25.2824C29.9981 25.0482 29.8293 24.8086 29.6713 24.5689C29.6114 24.4709 29.5733 24.3619 29.5297 24.2585Z" fill="#FFBF30"/>
<path d="M23.1459 0C22.7701 0 22.4923 0.234197 22.4269 0.631788C22.2036 1.96617 21.9912 3.30055 21.7734 4.62948C21.659 5.33752 21.5446 6.051 21.4193 6.75904C21.3376 7.22743 21.5664 7.59235 22.0184 7.68494C22.4324 7.76663 22.7864 7.5161 22.8626 7.05859C23.1241 5.50636 23.3746 3.94867 23.6306 2.39099C23.7123 1.90081 23.794 1.41608 23.8757 0.925896C23.9683 0.370358 23.6742 0 23.1459 0Z" fill="white"/>
<path d="M16.6273 0C16.1643 0 15.8321 0.348573 15.8975 0.806074C16.0609 2.00429 16.2297 3.19706 16.3985 4.39528C16.5238 5.2885 16.6382 6.18172 16.7744 7.07493C16.856 7.59779 17.3789 7.85922 17.8364 7.61958C18.1142 7.47252 18.2667 7.16752 18.2231 6.85163C18.027 5.42466 17.831 3.99769 17.6349 2.56528C17.5477 1.9226 17.4497 1.27991 17.3571 0.642681C17.2972 0.217858 17.0467 0 16.6273 0Z" fill="white"/>
<path d="M13.1631 8.40932C13.4463 8.43111 13.6696 8.29495 13.7949 8.04441C13.931 7.77753 13.9092 7.50521 13.7404 7.24378C13.3809 6.6828 13.016 6.11637 12.6566 5.55539C12.2045 4.85824 11.7633 4.15565 11.3058 3.4585C11.1152 3.1644 10.7993 3.04457 10.4507 3.14261C10.1512 3.22431 9.96056 3.44761 9.94967 3.75261C9.94423 3.94324 10.0096 4.16654 10.1131 4.32993C10.527 5.01619 10.9682 5.69155 11.4039 6.36691C11.747 6.9061 12.0956 7.45075 12.4441 7.9845C12.6674 8.32763 12.8145 8.40932 13.1631 8.40932Z" fill="white"/>
<path d="M26.7798 8.39842C27.063 8.44199 27.2591 8.30583 27.4062 8.09342C28.1196 7.0477 28.8386 6.00743 29.5466 4.95627C29.8026 4.57502 29.7318 4.13386 29.3996 3.89966C29.0401 3.64912 28.6207 3.71993 28.3429 4.11752C27.6186 5.16323 26.8996 6.21984 26.1861 7.27101C26.0119 7.52699 26.0282 7.81565 26.1589 8.07164C26.2787 8.31128 26.4966 8.45289 26.7798 8.39842Z" fill="white"/>
</svg>
