<svg width="77" height="77" viewBox="0 0 77 77" fill="none" xmlns="http://www.w3.org/2000/svg">
<path d="M12.7136 66.6246C12.7136 67.2359 12.7274 67.7917 12.7136 68.3336C12.6997 69.2368 12.2272 69.6953 11.338 69.6953C8.03108 69.6953 4.71027 69.6953 1.40335 69.6953C0.500205 69.6953 0 69.1951 0 68.2641C0 58.6491 0 49.0479 0 39.4328C0 38.5158 0.500205 38.0017 1.40335 38.0017C4.71027 37.9878 8.03108 37.9878 11.338 38.0017C12.2411 38.0017 12.6997 38.4741 12.7136 39.3773C12.7274 40.0998 12.7274 40.8084 12.7274 41.5309C12.7274 41.5726 12.7413 41.6143 12.783 41.781C12.9914 41.781 13.2415 41.781 13.4778 41.781C16.2289 41.781 18.9939 41.7671 21.745 41.781C25.2882 41.7949 28.4144 42.9343 31.0822 45.2686C35.2089 48.8812 39.3356 52.4938 43.4345 56.1342C45.4631 57.9266 45.7966 61.0528 44.2543 63.3454C42.7537 65.5825 39.7108 66.4439 37.3209 65.1656C35.7647 64.332 34.3196 63.2621 32.8329 62.2756C30.193 60.5248 27.553 58.7741 24.9269 56.9956C24.6073 56.7733 24.2877 56.4259 24.1627 56.0786C23.996 55.5645 24.1071 55.0226 24.649 54.6891C25.177 54.3556 25.6911 54.4251 26.2052 54.7586C28.5951 56.3565 30.9711 57.9405 33.3609 59.5383C34.9032 60.5665 36.4316 61.6086 37.9878 62.609C39.8497 63.804 42.045 62.9425 42.5591 60.8305C42.8231 59.7745 42.5036 58.8019 41.7116 58.1072C37.4181 54.3001 33.1247 50.4929 28.7618 46.7692C26.8444 45.1296 24.5101 44.3932 21.9674 44.4071C19.1606 44.4071 16.3678 44.4071 13.5611 44.4071C13.311 44.4071 13.0609 44.4071 12.7552 44.4071C12.7552 50.8542 12.7552 57.2596 12.7552 63.6928C15.2563 64.9016 17.7712 66.1105 20.2861 67.3193C23.4958 68.8477 26.6498 70.529 29.9429 71.835C36.7095 74.5028 43.3789 73.9609 49.826 70.5984C53.6192 68.6254 57.4264 66.6801 61.2057 64.6793C62.7758 63.8457 63.4705 62.4562 63.3316 60.7055C63.1926 59.052 62.3173 57.8432 60.7333 57.2596C59.6217 56.8428 58.5657 57.079 57.5236 57.5931C54.9531 58.8575 52.3826 60.108 49.7982 61.3446C49.5203 61.4836 49.173 61.5947 48.8812 61.5808C48.2698 61.5391 47.853 61.1779 47.7418 60.5526C47.6168 59.8718 47.9363 59.3994 48.5477 59.1076C50.4791 58.1628 52.4104 57.2318 54.3418 56.287C55.106 55.9118 55.8841 55.5367 56.6483 55.1615C60.6916 53.2024 65.1934 55.5923 65.8465 60.0385C66.2772 63.012 64.9711 65.6381 62.3173 67.0275C58.0377 69.2645 53.7721 71.5294 49.437 73.6552C45.6298 75.5171 41.5448 76.2257 37.3209 76.059C33.0413 75.8784 29.0953 74.5306 25.2882 72.627C21.2865 70.6123 17.2154 68.7227 13.186 66.7913C13.0748 66.7218 12.9498 66.694 12.7136 66.6246ZM2.63997 40.5722C2.63997 49.437 2.63997 58.2461 2.63997 67.0692C5.15489 67.0692 7.61424 67.0692 10.1014 67.0692C10.1014 58.2183 10.1014 49.4092 10.1014 40.5722C7.60034 40.5722 5.15489 40.5722 2.63997 40.5722Z" fill="#FFBF30"/>
<path d="M60.8722 41.9061C59.9829 42.2812 59.1771 42.6147 58.3434 42.9621C58.3434 44.2265 58.3434 45.477 58.3434 46.7275C58.3434 47.714 57.8988 48.1864 56.8983 48.1864C53.6331 48.2003 50.3679 48.2003 47.1027 48.1864C46.1161 48.1864 45.6576 47.7418 45.6437 46.7414C45.6298 45.4909 45.6437 44.2404 45.6437 42.976C44.81 42.6286 44.0042 42.2951 43.101 41.92C42.2673 42.7814 41.4198 43.6568 40.5583 44.5322C39.7802 45.3103 39.1133 45.3103 38.3491 44.5461C36.0703 42.2812 33.7916 40.0025 31.5268 37.7238C30.8043 37.0013 30.8043 36.2927 31.5407 35.5563C32.4022 34.6809 33.2775 33.8333 34.1529 32.9719C33.8055 32.1104 33.4721 31.3045 33.1108 30.4431C31.8742 30.4431 30.5959 30.4431 29.3315 30.4431C28.3311 30.4431 27.9003 30.0123 27.9003 28.998C27.9003 25.7328 27.9003 22.4676 27.9003 19.2023C27.9003 18.2297 28.3589 17.7851 29.3593 17.7712C30.6098 17.7712 31.8603 17.7712 33.1108 17.7712C33.4582 16.9375 33.7916 16.1316 34.1529 15.2285C33.3053 14.4087 32.4439 13.575 31.5963 12.7274C30.7626 11.8938 30.7765 11.2268 31.5963 10.4071C33.8194 8.18392 36.0426 5.96078 38.2796 3.73765C39.0994 2.91786 39.7941 2.91786 40.6 3.72375C41.4476 4.57132 42.2673 5.44668 43.0871 6.29425C43.9903 5.9191 44.7962 5.58563 45.6437 5.23826C45.6437 4.02943 45.6437 2.8345 45.6437 1.62567C45.6437 0.444627 46.0883 0 47.2833 0C50.4374 0 53.5775 0 56.7316 0C57.8849 0 58.3295 0.444627 58.3434 1.58398C58.3434 2.79281 58.3434 3.98775 58.3434 5.22437C59.1632 5.57173 59.9552 5.9052 60.8444 6.26646C61.6364 5.46057 62.4423 4.64079 63.2621 3.82101C64.2208 2.86229 64.8322 2.86229 65.777 3.79322C67.9862 6.00246 70.1955 8.2117 72.4047 10.4209C73.1967 11.2129 73.1967 11.8799 72.3908 12.6858C71.5432 13.5333 70.6818 14.367 69.8203 15.2146C70.1816 16.0899 70.515 16.8958 70.8624 17.7434C72.1129 17.7434 73.3495 17.7434 74.6001 17.7434C75.6005 17.7434 76.1146 18.2158 76.1146 19.2162C76.1285 22.4537 76.1285 25.705 76.1146 28.9424C76.1146 29.9567 75.6144 30.4014 74.6001 30.4014C73.3773 30.4014 72.1407 30.4014 70.8763 30.4014C70.5289 31.235 70.1955 32.0548 69.8064 32.9997C70.654 33.8194 71.5294 34.6392 72.3908 35.4868C73.1967 36.2788 73.1967 36.9735 72.4186 37.7516C70.1816 39.9886 67.9306 42.2396 65.6936 44.4766C64.8599 45.3103 64.2347 45.2964 63.3871 44.4488C62.5534 43.6151 61.7337 42.7676 60.8722 41.9061ZM30.4708 27.8726C31.6797 27.8726 32.8607 27.8726 34.0278 27.8726C34.7226 27.8726 35.1255 28.2199 35.3756 28.8591C35.8341 30.0401 36.3205 31.2073 36.8207 32.3744C37.168 33.1664 37.1263 33.611 36.4872 34.2363C35.6952 35.0144 34.8893 35.7647 34.1668 36.4594C36.0009 38.3074 37.7516 40.072 39.544 41.8783C40.2943 41.1141 41.0585 40.3221 41.8505 39.544C42.4758 38.9326 42.9343 38.9049 43.7263 39.2661C44.8378 39.7663 45.9633 40.2387 47.1027 40.6695C47.9085 40.9752 48.1725 41.2947 48.1725 42.1423C48.1725 43.2678 48.1725 44.4071 48.1725 45.5465C50.7153 45.5465 53.1885 45.5465 55.7312 45.5465C55.7312 44.421 55.7312 43.365 55.7312 42.2951C55.7451 41.2669 55.9952 40.9752 56.94 40.6278C58.0377 40.2109 59.1215 39.7524 60.1914 39.2661C61.0389 38.8771 61.4558 38.9049 62.1088 39.5718C62.8869 40.3638 63.6511 41.1697 64.4431 41.9895C66.2772 40.1276 68.0279 38.363 69.8481 36.515C69.0561 35.7508 68.2502 34.9866 67.4721 34.2085C66.8052 33.5415 66.7774 33.1247 67.1526 32.291C67.625 31.2628 68.0696 30.2207 68.4586 29.1648C68.8755 28.0532 69.0839 27.8587 70.2649 27.8587C71.3209 27.8587 72.3769 27.8587 73.419 27.8587C73.419 25.2604 73.419 22.7732 73.419 20.3139C73.3218 20.2861 73.2801 20.2722 73.2245 20.2722C72.1407 20.2722 71.043 20.2722 69.9593 20.2583C69.1256 20.2444 68.8338 19.9943 68.542 19.2162C68.1391 18.1324 67.7222 17.0626 67.2359 16.0205C66.7357 14.9645 66.7496 14.5893 67.5972 13.7556C68.3336 13.0331 69.0839 12.3245 69.7647 11.6715C67.9168 9.82348 66.166 8.07276 64.3875 6.29425C63.665 7.01677 62.9008 7.79487 62.1366 8.55907C61.4558 9.2399 61.0389 9.26769 60.1497 8.86475C59.1215 8.39233 58.0794 7.94771 57.0234 7.55866C55.9535 7.16961 55.7173 6.90561 55.7173 5.75236C55.7173 4.72416 55.7173 3.68207 55.7173 2.62608C53.1607 2.62608 50.6736 2.62608 48.1586 2.62608C48.1586 3.79322 48.1586 4.90479 48.1586 6.01636C48.1586 6.89172 47.8669 7.21129 47.0193 7.51697C45.9355 7.91992 44.8656 8.35065 43.8235 8.83696C42.8509 9.29548 42.448 9.26769 41.6699 8.4896C40.9196 7.73929 40.1831 6.97509 39.4745 6.26646C37.6543 8.07276 35.9036 9.82348 34.0695 11.6576C34.8476 12.4079 35.6535 13.1721 36.4455 13.9363C37.0985 14.5893 37.1402 15.0339 36.7651 15.8676C36.2649 16.9514 35.8064 18.063 35.3756 19.1884C35.056 20.0221 34.7643 20.2861 33.8472 20.2861C32.7218 20.2861 31.5963 20.2861 30.4291 20.2861C30.4708 22.8288 30.4708 25.3159 30.4708 27.8726Z" fill="white"/>
<path d="M52.0213 38.0434C44.282 38.0434 38.0295 31.7908 38.0295 24.0793C38.0434 16.3817 44.2959 10.1153 51.9658 10.1153C59.6773 10.1153 65.9715 16.3817 65.9715 24.0932C65.9715 31.763 59.705 38.0295 52.0213 38.0434ZM56.8983 19.1606C58.8297 19.6053 60.7888 20.0638 62.7341 20.5084C62.2755 17.6739 57.8571 13.2971 55.5783 13.3666C56.023 15.3118 56.4676 17.2571 56.8983 19.1606ZM55.5506 34.8337C58.5935 34.0834 62.0671 30.7765 62.7063 27.6363C60.7749 28.0949 58.8158 28.5534 56.8983 28.998C56.4676 30.9155 56.0091 32.8607 55.5506 34.8337ZM41.1419 27.5113C42.4619 31.1934 44.8934 33.6249 48.4643 34.9032C47.9919 32.8746 47.5334 30.9155 47.0749 28.9146C46.1578 28.7479 45.1574 28.609 44.1709 28.3728C43.1844 28.1504 42.2256 27.8309 41.1419 27.5113ZM48.4365 13.3527C45.3519 14.0474 41.8922 17.5211 41.2669 20.5223C43.2122 20.0638 45.1991 19.6053 47.0749 19.1745C47.5334 17.2154 47.978 15.2979 48.4365 13.3527ZM54.4529 21.6339C52.7716 21.6339 51.1877 21.6339 49.562 21.6339C49.562 23.3012 49.562 24.8852 49.562 26.5248C51.2432 26.5248 52.8133 26.5248 54.4529 26.5248C54.4529 24.8574 54.4529 23.3012 54.4529 21.6339ZM46.9081 26.2747C46.9081 24.788 46.9081 23.3707 46.9081 21.884C44.6711 22.3147 42.4619 22.6065 40.461 24.0932C42.5035 25.5799 44.6989 25.8717 46.9081 26.2747ZM57.0651 21.884C57.0651 23.4124 57.0651 24.8018 57.0651 26.2886C59.3021 25.8578 61.5391 25.5938 63.4983 24.0515C61.5113 22.5926 59.316 22.2869 57.0651 21.884ZM52.0213 35.6257C53.4664 33.5554 53.7998 31.3879 54.1889 29.1648C52.6883 29.1648 51.2849 29.1648 49.8121 29.1648C50.215 31.4018 50.5068 33.5971 52.0213 35.6257ZM51.9658 12.5607C50.5346 14.5893 50.1872 16.7569 49.826 18.9522C51.3266 18.9522 52.73 18.9522 54.2028 18.9522C53.7582 16.7291 53.4942 14.5199 51.9658 12.5607Z" fill="#FFBF30"/>
</svg>
