<svg width="76" height="76" viewBox="0 0 76 76" fill="none" xmlns="http://www.w3.org/2000/svg">
<path d="M41.4024 0.0373383C41.6326 1.05035 41.8474 2.06336 42.0776 3.10707C42.7681 3.3987 43.4587 3.69032 44.1953 3.9973C45.0546 3.42939 45.914 2.86149 46.758 2.30894C48.3846 3.95125 49.9806 5.56286 51.6379 7.22052C51.1008 8.034 50.533 8.89352 49.9652 9.75305C50.2568 10.4591 50.533 11.1498 50.8399 11.8865C51.8067 12.086 52.8195 12.3009 53.863 12.5312C53.863 14.8335 53.863 17.1051 53.863 19.4227C52.8502 19.6376 51.8527 19.8525 50.8553 20.0674C50.5637 20.7887 50.2721 21.4641 49.9652 22.2008C50.5177 23.045 51.0854 23.9045 51.6225 24.7027C49.9806 26.345 48.3846 27.9412 46.7119 29.6142C45.9447 29.1077 45.1007 28.5552 44.1646 27.9412C44.1646 28.6012 44.1646 29.1538 44.1646 29.7831C45.5764 30.1975 47.0189 30.6272 48.4613 31.057C51.0701 31.8091 53.6788 32.5612 56.2876 33.3286C59.679 34.3109 61.2902 36.4597 61.2902 40.0206C61.2902 45.1931 61.2902 50.3656 61.2902 55.5228C61.2902 55.7991 61.2902 56.06 61.2902 56.3977C45.7759 56.3977 30.2922 56.3977 14.7164 56.3977C14.7164 56.1214 14.7164 55.8605 14.7164 55.5995C14.7164 50.381 14.7164 45.1624 14.7164 39.9439C14.7164 36.4904 16.3431 34.3109 19.6424 33.344C23.5555 32.1928 27.4686 31.0724 31.3664 29.9212C31.5045 29.8752 31.6426 29.8291 31.8267 29.7677C31.8267 29.1998 31.8267 28.6473 31.8267 27.9412C30.9214 28.5398 30.0773 29.0924 29.3101 29.6142C27.6681 27.9719 26.0722 26.3757 24.3841 24.6873C24.8599 23.9506 25.4276 23.091 26.0108 22.2162C25.7192 21.5101 25.443 20.8041 25.1361 20.0827C24.154 19.8832 23.1565 19.6683 22.1283 19.4688C22.1283 17.1818 22.1283 14.9256 22.1283 12.5619C23.0951 12.3623 24.1079 12.1474 25.1361 11.9326C25.4276 11.2265 25.7192 10.5358 26.0108 9.79909C25.4583 8.95492 24.8905 8.11074 24.3841 7.35866C26.0261 5.65495 27.6527 4.02799 29.3101 2.37034C30.0467 2.86149 30.906 3.42939 31.7654 3.9973C32.5019 3.69032 33.1925 3.3987 33.8831 3.10707C34.1132 2.06336 34.3434 1.05035 34.5583 0.0373383C36.8447 0.0373383 39.1159 0.0373383 41.4024 0.0373383ZM24.5376 14.5265C24.5376 15.5241 24.5376 16.4451 24.5376 17.412C25.4123 17.5962 26.2563 17.7651 26.9622 17.9185C27.5914 19.4381 28.1898 20.8655 28.8037 22.385C28.3893 22.999 27.929 23.7203 27.4686 24.411C28.1438 25.1171 28.7883 25.7771 29.4942 26.4984C30.2155 26.0226 30.952 25.5315 31.6579 25.071C32.5787 25.5468 33.4227 25.9919 34.282 26.4371C34.282 27.6803 34.282 28.8775 34.282 30.0593C37.0442 32.4384 38.9317 32.4998 41.6939 29.9979C41.6939 28.8161 41.6939 27.5882 41.6939 26.391C42.538 25.9612 43.3359 25.5622 44.1953 25.1171C44.9319 25.5468 45.7145 26.0073 46.4204 26.4371C47.1263 25.7464 47.7861 25.0864 48.4613 24.411C48.001 23.7203 47.5253 22.999 47.1263 22.385C47.7554 20.8501 48.3539 19.4227 48.9678 17.9185C49.735 17.7497 50.579 17.5655 51.4077 17.3967C51.4077 16.3837 51.4077 15.4781 51.4077 14.5265C50.5483 14.3423 49.7043 14.1735 48.9678 14.02C48.3386 12.5005 47.7554 11.073 47.1263 9.55352C47.5406 8.92422 48.0163 8.18748 48.4613 7.51214C47.7554 6.79075 47.1263 6.13076 46.4357 5.44007C45.6991 5.91588 44.9626 6.39169 44.3487 6.79075C42.7988 6.14611 41.3717 5.56286 39.8985 4.94891C39.7297 4.19683 39.5609 3.35265 39.3768 2.53917C38.364 2.53917 37.4279 2.53917 36.4918 2.53917C36.3076 3.41405 36.1388 4.22753 35.9854 4.93356C34.4815 5.56286 33.0544 6.14611 31.5198 6.79075C30.906 6.37634 30.1694 5.90053 29.5556 5.50147C28.8037 6.22285 28.1285 6.88285 27.4533 7.54284C27.8983 8.23353 28.374 8.95492 28.7576 9.53817C28.1285 11.0884 27.53 12.5158 26.9162 14.0046C26.241 14.1735 25.4123 14.3423 24.5376 14.5265ZM26.0261 34.0193C24.0005 34.6026 22.0823 35.1551 20.1641 35.723C18.0925 36.3369 17.1717 37.5648 17.1717 39.7444C17.1717 44.2415 17.1717 48.7387 17.1717 53.2358C17.1717 53.4507 17.2024 53.6656 17.2178 53.8805C21.2536 53.8805 25.2281 53.8805 29.2333 53.8805C28.9571 51.6396 28.7116 49.4447 28.3893 47.2806C28.2052 46.0373 28.1131 44.8401 28.6656 43.6583C28.865 43.2439 28.9571 42.7834 29.1106 42.3383C28.3586 41.9546 27.6988 41.6015 27.0543 41.2639C26.7167 38.8388 26.3637 36.4751 26.0261 34.0193ZM58.7736 53.9112C58.7736 48.8768 58.8196 43.9345 58.7429 38.9923C58.7275 37.5034 57.8068 36.4751 56.4257 35.9379C55.6431 35.6309 54.8298 35.4314 54.0164 35.2011C52.6814 34.8021 51.3463 34.4184 49.9499 34.0193C49.5969 36.5058 49.244 38.8848 48.9064 41.2792C48.2005 41.6476 47.5406 41.9853 46.8501 42.3536C47.0649 42.9829 47.2797 43.5355 47.4332 44.1034C47.5866 44.6406 47.7861 45.2085 47.7555 45.7457C47.6634 47.081 47.4485 48.3857 47.2797 49.721C47.1109 51.1024 46.9421 52.4991 46.758 53.9265C50.7785 53.9112 54.7377 53.9112 58.7736 53.9112ZM41.4638 53.9112C40.7579 48.9843 40.0673 44.1494 39.3768 39.2839C38.41 39.2839 37.5353 39.2839 36.5992 39.2839C35.9087 44.1648 35.2181 48.9996 34.5122 53.9112C36.8447 53.9112 39.0852 53.9112 41.4638 53.9112ZM43.9497 53.9112C44.0265 53.9265 44.1032 53.9265 44.1799 53.9419C44.226 53.7423 44.318 53.5582 44.3334 53.3433C44.5943 51.2098 44.8091 49.061 45.1467 46.9429C45.3155 45.8992 45.1774 44.9476 44.8091 43.9806C44.4562 43.0443 44.1646 42.0774 43.8423 41.095C44.8244 40.5885 45.7452 40.1281 46.6659 39.6523C46.9728 37.5188 47.2644 35.4314 47.556 33.3133C46.2055 32.9295 44.9626 32.5612 43.6735 32.1928C43.0137 34.1728 42.3692 36.0914 41.74 38.01C41.6786 38.2095 41.7246 38.4551 41.7553 38.6699C42.231 42.0006 42.7068 45.3159 43.1825 48.6466C43.4433 50.3963 43.6889 52.1461 43.9497 53.9112ZM31.75 53.9265C31.8267 53.9112 31.9035 53.9112 31.9802 53.8958C32.0109 53.7577 32.0569 53.6196 32.0723 53.4814C32.6554 49.3987 33.1311 45.3006 33.8677 41.2332C34.282 38.9769 34.0672 36.9049 33.1772 34.8328C32.8856 34.1574 32.7014 33.4361 32.4559 32.73C32.3945 32.5612 32.3025 32.3923 32.2104 32.1928C30.9214 32.5765 29.6784 32.9449 28.374 33.3286C28.6809 35.4774 28.9725 37.5495 29.264 39.6523C30.1848 40.1281 31.1055 40.5885 32.0876 41.095C31.6733 42.3536 31.2283 43.5815 30.86 44.8401C30.7219 45.2699 30.6758 45.761 30.7219 46.2215C30.9367 48.2322 31.2129 50.2428 31.4585 52.2535C31.5659 52.8061 31.6579 53.3586 31.75 53.9265ZM39.5456 36.7974C39.8832 35.7997 40.1901 34.8328 40.497 33.8965C39.6069 34.05 38.7783 34.3109 37.965 34.3109C37.1363 34.3109 36.3076 34.05 35.433 33.8965C35.7706 34.8788 36.0928 35.8458 36.4151 36.8128C37.4893 36.7974 38.4714 36.7974 39.5456 36.7974Z" fill="white"/>
<path d="M0 61.6316C0.905389 58.439 3.31464 56.6126 6.10754 55.047C6.10754 53.0977 6.10754 51.1177 6.10754 49.1071C6.95154 49.1071 7.73417 49.1071 8.54748 49.1071C8.54748 51.5935 8.54748 54.0493 8.54748 56.4437C7.38122 57.1651 6.24565 57.8558 5.12542 58.5772C4.74178 58.8381 4.38883 59.1604 4.05123 59.4828C1.93354 61.5088 1.97958 63.7036 4.15865 65.6836C6.01546 67.372 8.24057 68.4464 10.5578 69.3366C15.5911 71.2705 20.8546 72.2836 26.1795 72.8975C32.5326 73.6342 38.901 73.7417 45.2848 73.3119C52.1596 72.8361 58.927 71.8231 65.4182 69.3366C67.6893 68.4771 69.8684 67.4334 71.6945 65.7757C72.1242 65.3766 72.5385 64.9315 72.8608 64.4404C73.8122 63.013 73.7048 61.6162 72.5999 60.2041C71.6331 58.9762 70.3594 58.1321 69.0244 57.3646C68.518 57.073 67.9809 56.8121 67.4284 56.5051C67.4284 54.0493 67.4284 51.5935 67.4284 49.0764C68.2264 49.0764 69.009 49.0764 69.8377 49.0764C69.8377 51.0563 69.8377 53.0056 69.8377 54.7861C71.2188 55.8451 72.5385 56.766 73.7201 57.8404C74.4107 58.4697 74.9785 59.3139 75.4081 60.1581C76.5591 62.4451 75.9299 64.5325 74.3953 66.405C72.692 68.4771 70.4362 69.8124 68.0423 70.9175C63.4079 73.0663 58.482 74.1868 53.464 74.9389C47.2183 75.8598 40.9266 76.1207 34.6043 75.9519C28.0977 75.7677 21.6373 75.1384 15.3149 73.4961C11.724 72.5598 8.22523 71.3473 5.06404 69.352C2.7622 67.8938 0.844006 66.1134 0.0306911 63.3967C0 62.8134 0 62.2148 0 61.6316Z" fill="#FFBF30"/>
<path d="M11.0335 1.49545C14.256 6.34563 17.4172 11.073 20.6705 15.9539C19.0132 15.9539 17.5247 15.9539 15.9441 15.9539C15.9441 21.7097 15.9441 27.3733 15.9441 33.083C15.1 33.083 14.3481 33.083 13.5501 33.083C13.5501 26.5752 13.5501 20.098 13.5501 13.5595C14.3481 13.5595 15.1307 13.5595 16.1282 13.5595C14.3942 10.9656 12.7522 8.49445 11.0488 5.93122C9.36081 8.46375 7.71883 10.9195 5.98478 13.5288C6.93621 13.5288 7.73417 13.5288 8.56284 13.5288C8.56284 21.3259 8.56284 29.0156 8.56284 36.782C7.76487 36.782 6.99759 36.782 6.15358 36.782C6.15358 29.8598 6.15358 22.9836 6.15358 16.0153C4.58833 16.0153 3.09981 16.0153 1.39645 16.0153C4.63437 11.0884 7.79556 6.34563 11.0335 1.49545Z" fill="#FFBF30"/>
<path d="M69.8837 36.7821C69.009 36.7821 68.2418 36.7821 67.4284 36.7821C67.4284 29.0463 67.4284 21.3259 67.4284 13.5595C68.2264 13.5595 69.0244 13.5595 70.0065 13.5595C68.2724 10.9656 66.6305 8.49445 64.9271 5.93122C63.2238 8.4791 61.5818 10.9502 59.8784 13.5135C60.7992 13.5135 61.5664 13.5135 62.4104 13.5135C62.4104 20.052 62.4104 26.5445 62.4104 33.083C61.6585 33.083 60.8912 33.083 60.0472 33.083C60.0472 27.404 60.0472 21.7404 60.0472 15.9846C58.482 15.9846 56.9628 15.9846 55.2747 15.9846C58.5434 11.0884 61.7045 6.34564 64.9271 1.5108C68.1343 6.31494 71.2955 11.073 74.5488 15.9386C72.9222 15.9386 71.4336 15.9386 69.8684 15.9386C69.8837 22.9069 69.8837 29.7984 69.8837 36.7821Z" fill="#FFBF30"/>
<path d="M4.9259 62.5678C5.72387 62.5678 6.47581 62.5678 7.28912 62.5678C7.7188 63.6115 8.67022 64.1027 9.62165 64.5478C12.4452 65.8678 15.4376 66.5738 18.4914 67.111C27.9903 68.7994 37.5659 68.9375 47.1723 68.3389C52.2056 68.032 57.2236 67.4334 62.0882 66.0366C63.8529 65.5301 65.5563 64.7627 67.2443 64.0106C67.8274 63.7497 68.2724 63.1511 68.9323 62.5525C69.4387 62.5525 70.2213 62.5525 71.0653 62.5525C70.9733 64.072 70.0679 65.0083 68.9323 65.791C66.6611 67.3413 64.0831 68.124 61.459 68.7226C52.7734 70.718 43.965 71.2091 35.0953 71.0403C29.6783 70.9329 24.2767 70.5031 18.9364 69.6129C15.3762 69.0143 11.8314 68.3082 8.57815 66.6506C7.59603 66.1594 6.70599 65.4534 5.87733 64.7473C5.24816 64.2408 4.9259 63.4734 4.9259 62.5678Z" fill="white"/>
<path d="M61.2595 58.9149C61.2595 59.713 61.2595 60.4651 61.2595 61.2632C45.7605 61.2632 30.2768 61.2632 14.7471 61.2632C14.7471 60.4958 14.7471 59.7437 14.7471 58.9149C30.2154 58.9149 45.6991 58.9149 61.2595 58.9149Z" fill="#FFBF30"/>
<path d="M6.16891 39.2685C6.98223 39.2685 7.73416 39.2685 8.53213 39.2685C8.53213 40.0667 8.53213 40.8341 8.53213 41.6629C7.76485 41.6629 6.99758 41.6629 6.16891 41.6629C6.16891 40.8802 6.16891 40.1127 6.16891 39.2685Z" fill="#FFBF30"/>
<path d="M69.8224 39.2992C69.8224 40.1127 69.8224 40.8648 69.8224 41.6629C69.0244 41.6629 68.2724 41.6629 67.4438 41.6629C67.4438 40.9109 67.4438 40.1281 67.4438 39.2992C68.1957 39.2992 68.9783 39.2992 69.8224 39.2992Z" fill="#FFBF30"/>
<path d="M6.15356 44.1801C6.96688 44.1801 7.71881 44.1801 8.53213 44.1801C8.53213 44.9782 8.53213 45.7457 8.53213 46.5745C7.7495 46.5745 6.96688 46.5745 6.15356 46.5745C6.15356 45.7764 6.15356 45.0243 6.15356 44.1801Z" fill="#FFBF30"/>
<path d="M69.8377 44.2108C69.8377 45.0243 69.8377 45.761 69.8377 46.5592C69.0397 46.5592 68.2724 46.5592 67.4438 46.5592C67.4438 45.7917 67.4438 45.0243 67.4438 44.2108C68.2418 44.2108 69.0244 44.2108 69.8377 44.2108Z" fill="#FFBF30"/>
<path d="M31.0594 11.0577C31.6733 11.4874 32.2871 11.9326 32.9469 12.393C31.2896 15.3707 31.4431 18.1334 33.9444 20.5278C35.6785 22.1855 38.6708 22.7841 41.5405 20.9883C41.9855 21.6176 42.4459 22.2622 42.8909 22.8915C40.3435 25.0096 35.3562 25.4547 31.9188 22.032C28.6348 18.7474 28.8343 13.8358 31.0594 11.0577Z" fill="#FFBF30"/>
<path d="M34.4048 10.9349C33.929 10.2749 33.4994 9.66095 33.0544 9.04701C36.1542 6.56052 41.1108 6.97494 44.0571 9.93723C47.0035 12.8995 47.4025 17.8418 44.9011 20.8962C44.272 20.4511 43.6428 20.006 43.029 19.5608C44.5942 16.2148 44.3487 13.6977 42.3077 11.6716C40.7732 10.1368 37.8882 8.89352 34.4048 10.9349Z" fill="#FFBF30"/>
</svg>
