<svg width="51" height="59" viewBox="0 0 51 59" fill="none" xmlns="http://www.w3.org/2000/svg">
<path d="M35.3426 45.7818C35.889 46.2657 36.0919 46.8745 36.0451 47.577C36.0294 47.9516 36.0451 48.3107 36.0451 48.6853C36.0451 50.1215 35.608 50.6678 34.1562 51.0425C34.3123 52.5879 33.8752 53.8836 32.3298 54.5549C32.3141 54.6329 32.2985 54.6641 32.2985 54.6954C32.1737 57.3491 31.0029 58.4575 28.3179 58.4575C26.4602 58.4575 24.6182 58.4575 22.7605 58.4575C20.5594 58.4575 19.2013 57.115 19.1701 54.8983C19.1701 54.8046 19.1701 54.711 19.1701 54.5705C17.609 53.8992 17.1407 52.6348 17.2968 51.2298C16.7349 50.8552 16.126 50.6366 15.8451 50.1995C15.5485 49.7624 15.5328 49.1224 15.4392 48.5604C15.3767 48.1546 15.3611 47.7331 15.4392 47.3428C15.5485 46.7964 15.7826 46.2657 15.9543 45.7349C16.0012 45.7505 16.048 45.7661 16.1104 45.7818C16.1104 45.7505 16.126 45.7037 16.126 45.6725C16.3758 44.0958 15.7826 43.0499 14.4869 41.9884C3.7313 33.1372 5.66701 15.9501 18.0305 9.79953C25.3675 6.14667 34.2967 8.14481 39.573 14.6232C46.6602 23.3338 45.1148 35.9784 36.1231 42.6909C35.5767 43.0967 35.2958 43.5963 35.3426 44.2831C35.3582 44.7671 35.3426 45.251 35.3426 45.7818ZM33.4693 45.3447C33.4693 45.0168 33.4849 44.7202 33.4693 44.4393C33.3757 43.0187 33.9845 41.9728 35.124 41.0986C42.6483 35.3539 44.3655 25.051 39.1359 17.1521C35.1084 11.0796 27.6622 8.39458 20.9653 10.6113C12.6917 13.3587 7.75882 22.3348 9.77257 30.983C10.756 35.1978 12.9883 38.6321 16.5007 41.1923C17.5466 41.9572 18.0774 42.9406 18.0305 44.2207C18.0149 44.5797 18.0305 44.9544 18.0305 45.3447C23.182 45.3447 28.2866 45.3447 33.4693 45.3447ZM34.1406 47.296C28.5052 47.296 22.9166 47.296 17.3281 47.296C17.3281 47.9204 17.3281 48.498 17.3281 49.0912C22.9322 49.0912 28.5208 49.0912 34.1406 49.0912C34.1406 48.4824 34.1406 47.9048 34.1406 47.296ZM32.2985 51.0269C27.8964 51.0269 23.5567 51.0269 19.1857 51.0269C19.1857 51.3391 19.1701 51.6045 19.1857 51.8699C19.2169 52.4943 19.5604 52.8533 20.1848 52.8533C23.8845 52.8689 27.5842 52.8689 31.2839 52.8533C31.9083 52.8533 32.2517 52.4943 32.2985 51.8855C32.3141 51.6045 32.2985 51.3391 32.2985 51.0269ZM21.1214 54.7578C20.9653 55.8974 21.5429 56.5998 22.6512 56.5998C24.7118 56.5998 26.7724 56.5998 28.8486 56.5998C29.957 56.5998 30.5345 55.913 30.3784 54.7578C27.2876 54.7578 24.1967 54.7578 21.1214 54.7578Z" fill="#FFBF30"/>
<path d="M8.52331 7.33307C9.60044 8.41019 10.6776 9.48732 11.7547 10.5644C11.3644 10.9547 10.9429 11.3762 10.5527 11.7508C9.47555 10.6893 8.39843 9.6122 7.33691 8.55069C7.69596 8.17604 8.11744 7.75455 8.52331 7.33307Z" fill="white"/>
<path d="M40.9628 11.7352C40.5881 11.3606 40.1666 10.9391 39.7764 10.5488C40.8223 9.50294 41.915 8.42582 42.9765 7.34869C43.3668 7.73896 43.7883 8.14483 44.1785 8.53509C43.1014 9.61222 42.0243 10.6893 40.9628 11.7352Z" fill="white"/>
<path d="M24.8213 5.13197C24.8213 3.58653 24.8213 2.08792 24.8213 0.54248C25.4301 0.54248 26.0233 0.54248 26.6477 0.54248C26.6477 2.07231 26.6477 3.58653 26.6477 5.13197C26.0701 5.13197 25.4769 5.13197 24.8213 5.13197Z" fill="white"/>
<path d="M5.1051 26.6745C3.54405 26.6745 2.04544 26.6745 0.5 26.6745C0.5 26.0813 0.5 25.4881 0.5 24.848C2.01422 24.848 3.54405 24.848 5.1051 24.848C5.1051 25.4412 5.1051 26.0344 5.1051 26.6745Z" fill="white"/>
<path d="M50.9996 24.848C50.9996 25.4568 50.9996 26.0344 50.9996 26.6432C49.4698 26.6432 47.9556 26.6432 46.3945 26.6432C46.3945 26.0656 46.3945 25.4724 46.3945 24.848C47.9088 24.848 49.423 24.848 50.9996 24.848Z" fill="white"/>
<path d="M34.2498 18.6819C34.6869 18.4165 35.0772 18.1667 35.4831 17.9326C35.967 17.6516 36.4041 17.6984 36.7943 18.1199C38.2617 19.6966 39.2296 21.523 39.7603 23.5992C39.8852 24.0675 39.6979 24.4422 39.292 24.6919C38.8705 24.9573 38.4334 25.2227 38.012 25.4881C38.012 26.2686 38.012 27.0179 38.012 27.8452C38.4022 28.0794 38.8237 28.3604 39.2452 28.6102C39.7291 28.9068 39.8852 29.297 39.7291 29.8434C39.1984 31.8415 38.2617 33.6055 36.8724 35.1197C36.3885 35.6505 36.0138 35.6973 35.3738 35.3383C35.0147 35.1197 34.6401 34.9012 34.2498 34.667C33.641 35.0417 33.0478 35.4007 32.4078 35.791C32.4078 36.2905 32.4078 36.7901 32.4078 37.3052C32.4078 37.8828 32.158 38.3199 31.5648 38.398C30.3316 38.5541 29.0984 38.7414 27.8651 38.7882C26.9753 38.8194 26.6943 38.4448 26.6943 37.555C26.6943 35.3539 26.6943 33.1528 26.6943 30.9517C26.6943 30.0619 27.1314 29.6873 27.99 29.8434C29.5667 30.1244 31.0028 29.219 31.4399 27.6735C31.9863 25.7378 30.956 23.8646 29.0827 23.4743C28.7393 23.3962 28.3491 23.4587 27.99 23.5055C27.1627 23.6304 26.7099 23.2714 26.7099 22.444C26.7099 20.1805 26.7099 17.9326 26.7099 15.669C26.7099 14.9666 27.0065 14.6388 27.7246 14.5607C29.0827 14.4358 30.4096 14.5763 31.7053 14.9666C32.2048 15.1227 32.4858 15.4973 32.4078 15.9656C32.2048 17.1677 32.6576 17.9326 33.7659 18.3541C33.9064 18.4477 34.0313 18.557 34.2498 18.6819ZM28.5832 21.4918C31.799 22.1006 33.4069 23.849 33.4069 26.6901C33.4069 29.5312 31.7834 31.2796 28.5988 31.8884C28.5988 33.5743 28.5988 35.2446 28.5988 37.0242C29.2701 36.9462 29.8945 36.8681 30.4252 36.8057C30.5501 36.1656 30.5814 35.6037 30.7687 35.1197C31.1433 34.1831 33.2664 32.825 34.281 32.9187C34.8274 32.9655 35.3426 33.2153 35.9514 33.387C36.7319 32.4035 37.3875 31.2639 37.7466 29.9371C37.3407 29.6873 36.9817 29.4531 36.607 29.2346C36.1699 28.9848 36.0138 28.6414 36.0294 28.1262C36.0606 27.174 36.0606 26.2218 36.0294 25.2851C36.0138 24.77 36.1855 24.4265 36.6226 24.1768C37.0129 23.9582 37.3719 23.7085 37.8871 23.3962C37.247 22.1942 36.6226 21.0391 35.9982 19.8683C35.764 19.9932 35.6548 20.0556 35.5611 20.118C34.6245 20.6956 33.7191 20.6644 32.8293 20.04C32.5795 19.8683 32.3141 19.6966 32.0331 19.5405C31.0184 19.0097 30.4877 18.1979 30.5501 17.0428C30.5501 16.9179 30.5345 16.7774 30.5033 16.5745C29.8633 16.512 29.2388 16.4496 28.5988 16.3871C28.5832 18.1511 28.5832 19.8214 28.5832 21.4918Z" fill="#FFBF30"/>
<path d="M14.5029 34.1987C11.5994 32.466 10.9906 30.0776 12.6297 27.0803C10.6627 24.2704 12.0521 21.1952 14.4717 19.9932C14.5029 19.6029 14.4873 19.197 14.5654 18.8068C14.9869 16.4496 17.0943 14.7012 19.6856 14.5451C21.4964 14.4358 23.0731 14.9666 24.3532 16.2779C24.6029 16.5276 24.7903 16.9491 24.7903 17.2925C24.8215 23.568 24.8215 29.8278 24.7903 36.1032C24.7903 36.3998 24.6498 36.7745 24.4624 36.993C22.1833 39.5375 17.7655 39.4282 15.5801 36.8057C14.9556 36.0408 14.6122 35.1666 14.5029 34.1987ZM19.1549 22.9748C17.625 23.3026 16.3606 22.9904 15.5644 21.6167C13.6444 22.3972 13.0043 24.489 14.2219 25.8939C15.2054 25.8939 16.2513 25.8939 17.2816 25.8939C17.2816 26.534 17.2816 27.1116 17.2816 27.7048C16.3918 27.7048 15.5332 27.7048 14.6903 27.7048C13.8941 28.3604 13.457 29.1721 13.5975 30.1712C13.7536 31.264 14.3781 32.0445 15.4708 32.5284C16.4855 31.4513 17.7655 31.2796 19.1236 31.5137C19.1236 32.1225 19.1236 32.7157 19.1236 33.3089C17.3284 33.4026 17.266 33.4338 16.423 34.1363C16.704 35.4788 17.5002 36.4154 18.8114 36.8057C20.3257 37.2428 21.7306 36.9462 22.9014 35.9315C22.9014 29.7185 22.9014 23.5992 22.9014 17.4487C21.6525 16.4184 20.2632 16.153 18.7334 16.6369C17.6094 16.9959 16.7821 17.6828 16.4542 18.8536C16.2825 19.4468 16.345 19.9463 16.8601 20.3678C17.1567 20.602 17.3909 20.9298 17.6563 21.2264C18.187 21.2264 18.6709 21.2264 19.1549 21.2264C19.1549 21.8352 19.1549 22.4128 19.1549 22.9748Z" fill="white"/>
<path d="M20.1533 23.006C20.1533 22.3816 20.1533 21.804 20.1533 21.2108C20.7621 21.2108 21.3397 21.2108 21.9485 21.2108C21.9485 21.7884 21.9485 22.3816 21.9485 23.006C21.3709 23.006 20.7777 23.006 20.1533 23.006Z" fill="#FFBF30"/>
<path d="M18.2803 27.6891C18.2803 27.0647 18.2803 26.4871 18.2803 25.8939C18.8891 25.8939 19.4667 25.8939 20.0755 25.8939C20.0755 26.4715 20.0755 27.0647 20.0755 27.6891C19.4979 27.6891 18.9047 27.6891 18.2803 27.6891Z" fill="#FFBF30"/>
<path d="M20.1689 31.4825C20.7778 31.4825 21.3553 31.4825 21.9642 31.4825C21.9642 32.0913 21.9642 32.6845 21.9642 33.2933C21.371 33.2933 20.7934 33.2933 20.1689 33.2933C20.1689 32.7157 20.1689 32.1225 20.1689 31.4825Z" fill="#FFBF30"/>
</svg>
