<?xml version="1.0" encoding="UTF-8"?> <svg xmlns="http://www.w3.org/2000/svg" width="60" height="51" viewBox="0 0 60 51" fill="none"><path d="M43.0559 9.92553C41.9483 10.6703 40.8598 11.4341 39.695 12.2361C35.4557 7.99683 30.3189 5.91537 24.38 6.14453C18.8995 6.35458 14.2019 8.55062 10.4591 12.599C3.6036 20.0082 3.25988 30.1863 9.00776 38.1303C14.6602 45.9405 25.1057 48.4612 33.8325 44.4319C41.5282 40.8801 48.7083 30.2054 43.6096 17.8694C44.679 17.1438 45.7675 16.38 46.8751 15.6352C49.8349 20.2755 50.9998 30.0718 46.3213 38.283C41.1654 47.3345 30.3952 52.2231 20.1789 50.008C14.3355 48.7285 8.93138 45.0621 5.32224 40.3454C1.54124 35.4186 0.395481 28.6778 1.2548 22.6052C2.07593 16.781 5.07399 11.3577 9.61883 7.59582C10.841 6.58373 12.1777 5.68622 13.5717 4.92238C24.8956 -1.26471 37.4226 3.08917 43.0559 9.92553Z" fill="#FFBF30"></path><path d="M11.2611 20.6957C12.9224 16.4373 15.9014 13.592 20.1216 12.0261C25.9459 9.86828 32.1903 11.9115 35.3411 15.1961C34.1762 15.979 33.0496 16.7619 31.8656 17.564C29.2113 15.6735 26.3087 14.9478 23.1388 15.5207C20.6181 15.979 18.5176 17.2393 16.8371 19.2062C13.6099 22.9872 13.3807 28.5441 16.2451 32.5734C19.1668 36.679 24.4946 38.2831 29.1349 36.4499C34.3672 34.3875 36.6587 29.8427 35.7803 23.1973C36.8879 22.4525 38.0336 21.6696 39.1794 20.8676C41.3945 25.6224 40.497 33.7191 34.1762 38.3786C28.0846 42.8661 19.6442 42.2168 14.3928 36.8318C12.2923 34.6739 10.9365 32.1342 10.3445 29.1743C9.8098 26.2908 10.0771 23.5028 11.2611 20.6957Z" fill="#FFBF30"></path><path d="M46.8941 9.71551C47.0469 8.58885 47.1233 7.50038 47.3715 6.4501C47.4861 5.95361 47.7916 5.38073 48.1926 5.07519C50.1786 3.643 52.2028 2.26809 54.2652 0.931371C54.6089 0.702219 55.2391 0.587643 55.5446 0.759507C55.8501 0.931371 56.0411 1.54244 56.022 1.94346C55.9838 3.10831 55.7928 4.27316 55.6592 5.49531C56.824 5.80084 57.9125 6.0109 58.9628 6.37372C59.3829 6.50739 59.9367 6.90841 59.994 7.27123C60.0512 7.63405 59.6884 8.22603 59.3447 8.47428C57.3205 9.90647 55.2772 11.3005 53.1958 12.6563C52.8521 12.8854 52.2983 12.9618 51.8782 12.8854C50.7897 12.6945 49.7203 12.3699 48.5555 12.0834C46.665 13.3628 44.7363 14.6614 42.8267 15.979C37.8808 19.3399 32.9541 22.7008 28.0082 26.0617C27.0152 26.73 26.2896 26.6918 25.7358 25.9662C25.1629 25.2023 25.373 24.3812 26.3469 23.7129C29.4213 21.6123 32.4958 19.5308 35.5702 17.4303C39.313 14.8905 43.0749 12.3317 46.8941 9.71551Z" fill="#FFBF30"></path><path d="M26.8434 20.9822C26.175 21.4405 25.6594 21.7842 25.1438 22.128C23.3679 23.3692 22.9287 25.3743 24.0363 27.0356C25.1247 28.6588 27.2062 28.9834 29.0012 27.7995C29.5168 27.4557 30.0515 27.112 30.6053 26.7492C30.8726 28.3533 29.4786 30.3965 27.5881 31.3131C25.3539 32.3825 22.6232 31.7905 21 29.9C19.396 28.0477 19.205 25.317 20.5226 23.2355C21.8211 21.1732 24.3418 20.2184 26.8434 20.9822Z" fill="#FFBF30"></path></svg> 