<?xml version="1.0" encoding="UTF-8"?> <svg xmlns="http://www.w3.org/2000/svg" width="83" height="80" viewBox="0 0 83 80" fill="none"><path d="M5.2764 48.3974C3.543 46.071 2.76754 43.4709 2.74473 40.6883C2.6763 35.9671 6.46241 32.0898 11.1608 32.0898C15.8821 32.067 19.6454 35.8759 19.6454 40.6199C19.6454 42.741 19.1664 44.7481 18.2085 46.6184C17.0909 48.8308 15.4487 50.4273 13.1223 51.0659C16.5891 54.5327 20.0787 58.0223 23.7736 61.7172C24.8456 61.7172 26.3053 61.7172 27.7422 61.7172C30.023 61.7172 32.3038 61.7172 34.5617 61.7172C38.211 61.74 40.3093 64.477 39.3742 68.0122C39.3514 68.1262 39.3286 68.2175 39.3058 68.3999C40.5374 68.3999 41.7462 68.3999 42.9322 68.3999C43.1603 68.3999 43.3656 68.3771 43.434 68.3771C43.434 67.328 43.2744 66.2788 43.4568 65.3209C43.8902 63.1313 45.7604 61.74 48.1324 61.74C51.5764 61.7172 55.0204 61.74 58.4644 61.74C58.8065 61.74 59.1486 61.74 59.3539 61.74C62.9347 58.1592 66.4244 54.6696 69.8912 51.18C64.8506 49.2413 63.3681 45.0675 63.3681 40.1181C63.3681 35.9671 66.9717 32.3863 71.1456 32.1354C75.5247 31.8617 79.4705 34.9179 80.0863 39.1374C80.5652 42.5358 79.6757 45.6148 77.7143 48.4658C77.988 48.5571 78.2617 48.6483 78.5125 48.7167C81.1354 49.5834 82.9829 52.0011 82.9829 54.7608C83.0057 62.3102 83.0057 69.8368 82.9829 77.3862C82.9829 78.3898 82.4355 78.9828 81.5916 78.96C80.7477 78.9372 80.2688 78.367 80.2688 77.3178C80.2688 70.0421 80.1775 62.7436 80.3144 55.4679C80.36 52.4572 77.7371 49.9483 74.1106 51.6817C73.1527 52.1379 72.3316 52.8906 71.5561 53.6432C68.1578 56.996 64.7822 60.3944 61.4066 63.7699C61.1785 64.0208 60.9961 64.3173 60.8592 64.4998C56.7538 64.4998 52.8537 64.4998 48.9535 64.4998C48.5886 64.4998 48.2009 64.4998 47.8359 64.5226C46.8096 64.6366 46.1025 65.3893 46.0569 66.37C46.0113 67.3964 46.6271 68.1718 47.6535 68.3771C47.9272 68.4227 48.2237 68.4455 48.4974 68.4455C52.6028 68.4455 56.6854 68.4455 60.7908 68.4683C61.8172 68.4683 62.6382 68.1262 63.3681 67.3964C66.0138 64.705 68.7051 62.0365 71.3965 59.368C71.5561 59.2083 71.7158 59.0259 71.8754 58.889C72.5141 58.3416 73.2439 58.3188 73.7913 58.8434C74.3615 59.3908 74.3843 60.1663 73.7913 60.8277C73.1071 61.5576 72.4 62.2418 71.693 62.9488C70.8947 63.7243 70.1192 64.4998 69.2753 65.3209C69.2753 65.9367 69.2753 66.5525 69.2753 67.1911C69.2753 70.4298 69.2753 73.6685 69.2753 76.9301C69.2753 77.1582 69.2753 77.3862 69.2753 77.6143C69.2069 78.5038 68.6595 79.0284 67.8613 79.0056C67.063 78.9828 66.5612 78.4354 66.5612 77.5231C66.5384 74.7861 66.5612 72.0492 66.5612 69.335C66.5612 69.0157 66.5612 68.7192 66.5612 68.1947C65.7173 68.9929 64.9875 69.6772 64.1892 70.4298C64.1892 72.6194 64.1892 74.9002 64.1892 77.181C64.1892 78.5951 63.7558 79.0512 62.3646 79.0512C48.4517 79.0512 34.5389 79.0512 20.6261 79.0512C19.2804 79.0512 18.8243 78.5951 18.8243 77.2494C18.8243 74.9686 18.8243 72.6878 18.8243 70.4298C18.0716 69.7228 17.3418 69.0157 16.4523 68.1718C16.4523 68.6508 16.4523 68.9017 16.4523 69.1754C16.4523 71.9123 16.4523 74.6493 16.4523 77.3634C16.4523 78.4126 15.9733 78.9828 15.1294 79.0056C14.2627 79.0284 13.7381 78.4126 13.7381 77.3406C13.7381 73.6914 13.7381 70.0649 13.7381 66.4156C13.7381 66.0735 13.7381 65.7314 13.7381 65.2981C12.3468 63.9296 10.9328 62.5383 9.51867 61.147C9.3134 60.9417 9.10813 60.7365 8.97128 60.5084C8.65197 59.9154 8.7432 59.3452 9.24498 58.889C9.70113 58.4557 10.2713 58.3645 10.8187 58.7066C11.0924 58.8662 11.2977 59.0943 11.5258 59.3224C14.2855 62.0821 17.0453 64.8191 19.7822 67.6017C20.398 68.2175 21.1051 68.5368 21.9718 68.5368C26.214 68.5368 30.4563 68.5596 34.6986 68.514C35.2232 68.514 35.839 68.3087 36.2723 68.0122C36.9794 67.5332 37.1162 66.7349 36.8653 65.9367C36.5916 65.0928 35.9758 64.6138 35.0863 64.591C33.4442 64.5682 31.7792 64.5682 30.137 64.5682C27.5597 64.5682 24.9596 64.5682 22.3367 64.5682C20.3068 62.5383 18.3225 60.5312 16.2926 58.5241C14.4908 56.7451 12.7118 54.9433 10.91 53.1643C9.9064 52.1607 8.7432 51.4537 7.2835 51.2484C4.77463 50.9063 2.76753 52.5941 2.76753 55.1257C2.74473 62.3786 2.76753 69.6315 2.76753 76.8845C2.76753 77.1353 2.79034 77.3862 2.76753 77.6599C2.72192 78.481 2.17453 79.0056 1.42187 79.0284C0.646401 79.0284 0.0990117 78.5266 0.053396 77.7055C0.0305881 77.4547 0.053396 77.2038 0.053396 76.9301C0.053396 69.9965 0.144628 63.0401 0.00778018 56.1065C-0.129067 52.2519 1.53591 49.4466 5.2764 48.3974ZM21.5612 76.1318C34.8582 76.1318 48.0868 76.1318 61.361 76.1318C61.361 74.444 61.361 72.8018 61.361 71.1825C48.064 71.1825 34.8126 71.1825 21.5612 71.1825C21.5612 72.8703 21.5612 74.4896 21.5612 76.1318ZM16.8856 41.1445C16.9312 37.6321 14.7189 35.0776 11.731 34.8267C8.60636 34.553 5.86941 36.697 5.52729 39.8673C5.2764 42.3761 5.91502 44.7481 7.53438 46.7324C9.6099 49.2869 13.0767 49.1729 15.061 46.5272C16.3154 44.8166 16.7716 42.8551 16.8856 41.1445ZM66.0366 41.0761C66.105 42.6726 66.5612 44.5657 67.6788 46.2307C69.7999 49.3553 73.6088 49.3781 75.7528 46.2535C76.8704 44.6113 77.3721 42.7639 77.4406 40.8024C77.5546 37.4952 75.0229 34.8267 71.7842 34.8039C68.5455 34.7811 66.0366 37.3584 66.0366 41.0761Z" fill="#FFBF30"></path><path d="M35.6793 51.294C33.8091 50.0852 33.5582 49.5378 33.6038 47.0061C31.3686 45.1815 31.2318 43.2656 33.1933 41.1673C32.8511 39.8445 32.0073 38.7725 31.1406 37.7233C30.023 36.3548 28.7913 35.0776 27.8334 33.5951C21.3788 23.7649 27.8562 10.103 39.5795 8.87133C46.2394 8.16429 52.4887 11.403 55.659 17.1734C58.8293 22.9438 58.1907 29.923 53.9941 35.1688C53.2642 36.0812 52.4203 36.9022 51.7361 37.8374C50.9606 38.8637 50.2764 39.9813 49.5921 41.0077C51.7361 42.9691 51.4852 45.5692 49.3641 46.9833C49.2728 49.7431 49.0676 50.1764 47.3113 51.2484C47.2885 51.294 47.2429 51.3624 47.2429 51.4081C47.3798 54.259 46.0569 55.6275 43.2059 55.6275C41.9515 55.6275 40.6971 55.6275 39.4426 55.6275C36.9566 55.6275 35.5653 54.1222 35.6793 51.6361C35.6793 51.4993 35.6793 51.3852 35.6793 51.294ZM44.7341 29.1932C44.7341 33.0249 44.7341 36.7426 44.7341 40.5059C45.5323 40.5059 46.2622 40.5059 47.0377 40.5059C47.6763 38.2935 49.0904 36.5829 50.5957 34.9408C50.915 34.5758 51.2343 34.2109 51.5536 33.846C53.4239 31.6108 54.5643 29.0563 54.8608 26.1369C55.7275 17.6524 48.0184 10.331 39.5567 11.6311C29.2931 13.2276 24.5719 25.0193 30.9353 33.253C32.7371 35.6022 35.1091 37.5409 35.9074 40.4831C36.7741 40.4831 37.504 40.4831 38.2566 40.4831C38.2566 36.697 38.2566 32.9793 38.2566 29.1932C36.9109 29.216 35.5881 29.2388 34.4933 28.3493C33.3757 27.437 32.8511 26.2738 32.9424 24.8369C33.0564 22.8298 34.7214 21.1876 36.7969 21.0964C37.8005 21.0507 38.7128 21.3244 39.5111 21.9403C40.9936 23.0807 41.1532 24.7 41.062 26.4334C41.4041 26.4334 41.6322 26.4334 41.9743 26.4334C41.9743 25.1106 41.9059 23.7649 42.8182 22.6701C43.7077 21.5753 44.8481 21.0279 46.2394 21.0964C48.2693 21.1876 49.9343 22.807 50.0711 24.7684C50.1395 25.8404 49.8886 26.7983 49.2272 27.6422C48.0412 29.1019 46.4446 29.2844 44.7341 29.1932ZM48.1781 43.3341C43.6393 43.3341 39.283 43.3341 34.767 43.3341C34.7442 43.6762 34.6074 44.0411 34.7214 44.2692C34.8354 44.4745 35.2232 44.6341 35.4969 44.6569C36.9109 44.7025 38.325 44.6797 39.7619 44.6797C42.2936 44.6797 44.8253 44.7025 47.3342 44.6569C47.6307 44.6569 48.0412 44.4973 48.2009 44.2692C48.3377 44.0867 48.2009 43.699 48.1781 43.3341ZM36.2951 48.5115C36.6829 48.6255 36.9566 48.7623 37.2075 48.7623C40.0584 48.7851 42.8866 48.7851 45.7376 48.7623C46.0113 48.7623 46.399 48.5799 46.5131 48.3746C46.6271 48.1465 46.4903 47.7816 46.4675 47.4851C43.0463 47.4851 39.7847 47.4851 36.4548 47.4851C36.4092 47.8272 36.3636 48.1237 36.2951 48.5115ZM41.062 29.216C41.062 33.0249 41.062 36.7426 41.062 40.5515C41.3585 40.5287 41.6094 40.5059 41.8603 40.5059C41.8603 36.7198 41.8603 32.9793 41.8603 29.2388C41.5866 29.216 41.3585 29.216 41.062 29.216ZM44.3463 51.4993C42.4989 51.4993 40.8795 51.4765 39.2602 51.5221C38.9637 51.5221 38.5075 51.8642 38.4391 52.1379C38.325 52.6625 38.7584 52.8678 39.2602 52.8678C40.7427 52.8678 42.2252 52.8906 43.7077 52.845C43.9814 52.845 44.3463 52.6397 44.4604 52.4344C44.5516 52.2291 44.3919 51.8642 44.3463 51.4993ZM38.2338 26.365C38.3935 24.5632 38.0285 23.8333 37.0022 23.8105C36.2039 23.7877 35.5881 24.4035 35.6337 25.2018C35.7021 26.2509 36.4548 26.5931 38.2338 26.365ZM44.6884 26.4334C45.2358 26.4334 45.7148 26.479 46.1938 26.4334C46.878 26.365 47.3342 25.7492 47.3113 25.0649C47.2885 24.3807 46.7412 23.8561 46.0569 23.8333C45.3499 23.8105 44.8025 24.2667 44.7113 24.9737C44.6428 25.4071 44.6884 25.8632 44.6884 26.4334Z" fill="white"></path><path d="M55.431 12.2925C55.1117 12.0416 54.5871 11.8136 54.4274 11.4486C54.2678 11.0381 54.2678 10.3539 54.5186 10.0574C55.3169 9.09942 56.2064 8.20991 57.1416 7.38883C57.6889 6.90986 58.3732 6.97828 58.9206 7.52567C59.4223 8.02745 59.5136 8.68888 59.0346 9.23627C58.1907 10.1942 57.2556 11.0609 56.3433 11.9504C56.1608 12.1101 55.8415 12.1329 55.431 12.2925Z" fill="#FFBF30"></path><path d="M28.8141 10.9469C28.5405 11.289 28.3124 11.8364 27.9246 11.996C27.5369 12.1557 26.8299 12.1101 26.5106 11.8592C25.5754 11.0837 24.7315 10.1942 23.9105 9.28188C23.4087 8.73449 23.4543 8.05025 23.9789 7.50286C24.5035 6.95547 25.1877 6.88705 25.7351 7.36602C26.6702 8.1871 27.5369 9.09942 28.3808 10.0117C28.5861 10.217 28.6317 10.5135 28.8141 10.9469Z" fill="#FFBF30"></path><path d="M19.8278 26.2966C19.2576 26.2966 18.6874 26.3194 18.1172 26.2966C17.3418 26.251 16.7944 25.7492 16.7488 25.0421C16.7032 24.3579 17.2049 23.6737 17.9348 23.6281C19.1892 23.5596 20.4437 23.5596 21.6753 23.6509C22.4279 23.6965 22.9069 24.4035 22.8157 25.1106C22.7244 25.8632 22.2683 26.2966 21.5156 26.3194C20.9682 26.3194 20.398 26.2966 19.8278 26.2966Z" fill="#FFBF30"></path><path d="M63.026 26.2966C62.4786 26.2966 61.954 26.3194 61.4066 26.2966C60.6311 26.251 60.0838 25.7492 60.0838 25.0193C60.0609 24.2439 60.4715 23.6965 61.2013 23.6281C62.4786 23.5368 63.7558 23.5368 65.0331 23.6281C65.7629 23.6737 66.1735 24.2667 66.1735 24.9965C66.1735 25.7036 65.6033 26.251 64.8506 26.2738C64.2348 26.3194 63.619 26.2966 63.026 26.2966Z" fill="#FFBF30"></path><path d="M42.8182 3.23779C42.8182 3.8308 42.841 4.4238 42.8182 5.01681C42.7726 5.81508 42.1796 6.33967 41.4269 6.31686C40.6971 6.29405 40.1497 5.79228 40.1269 5.01681C40.0812 3.87641 40.0812 2.73602 40.1269 1.61843C40.1497 0.797348 40.7199 0.272766 41.4953 0.272766C42.248 0.272766 42.7954 0.797348 42.841 1.61843C42.841 2.16582 42.8182 2.6904 42.8182 3.23779Z" fill="#FFBF30"></path></svg> 