<?xml version="1.0" encoding="UTF-8"?> <svg xmlns="http://www.w3.org/2000/svg" width="71" height="77" viewBox="0 0 71 77" fill="none"><path d="M50.5545 68.0912C47.8536 69.2046 45.3588 70.2561 42.6167 71.39C42.1219 72.6477 41.5446 74.1734 40.9466 75.6991C40.5343 76.7713 40.2869 76.9362 39.1941 76.9362C36.4108 76.9362 33.648 76.9156 30.8646 76.9568C29.9781 76.9568 29.4832 76.6063 29.1946 75.8022C28.6379 74.2559 28.0194 72.7302 27.5039 71.39C24.8237 70.2767 22.3083 69.2458 19.5661 68.1118C18.2672 68.6891 16.7003 69.3489 15.1746 70.0705C14.4324 70.421 13.8757 70.2973 13.2984 69.72C11.2985 67.6995 9.27794 65.679 7.23679 63.6584C6.6595 63.1018 6.55641 62.5245 6.90691 61.7822C7.60791 60.2771 8.26768 58.7308 8.86559 57.3907C7.75224 54.7104 6.70074 52.195 5.56676 49.4529C4.28847 48.958 2.76276 48.3601 1.21644 47.7828C0.164941 47.3705 0.0206176 47.1437 0 46.0097C0 44.752 0 43.4944 0 42.2367C0 41.0821 0.412353 40.6698 1.58756 40.6698C8.32953 40.6698 15.0715 40.6698 21.7929 40.6698C37.2767 40.6698 52.7606 40.6698 68.2238 40.6698C69.7495 40.6698 70.0588 40.979 70.0588 42.5253C70.0588 43.7005 70.0588 44.8964 70.0588 46.0716C70.0588 47.1437 69.8732 47.3911 68.8629 47.7828C67.3372 48.3808 65.8115 48.9581 64.492 49.4735C63.3787 52.1744 62.3478 54.6691 61.2138 57.3907C61.7705 58.6483 62.4509 60.174 63.1106 61.6998C63.5436 62.6894 63.5024 62.9574 62.7189 63.7409C60.7602 65.6996 58.7809 67.6583 56.8429 69.6375C56.2449 70.2561 55.647 70.4004 54.8429 70.0087C53.3791 69.3077 51.8534 68.6685 50.5545 68.0912ZM53.008 43.1645C52.1627 52.6898 44.596 59.3081 36.184 59.8029C31.8749 60.0503 27.9163 58.937 24.4525 56.3598C20.0404 53.0816 17.6693 48.6282 17.1333 43.1851C12.2263 43.1851 7.38112 43.1851 2.53597 43.1851C2.53597 44.0304 2.53597 44.8139 2.53597 45.618C3.99982 46.1747 5.42244 46.7726 6.86568 47.288C7.58729 47.556 7.99965 47.989 8.16459 48.7519C8.78312 51.3291 9.77276 53.7413 11.1541 55.9887C11.5871 56.7103 11.6284 57.3288 11.2572 58.071C10.5975 59.4524 9.99956 60.875 9.44288 62.1327C11.2779 63.9471 13.0097 65.6996 14.8035 67.4727C16.0611 66.916 17.4219 66.38 18.7208 65.7202C19.5868 65.2872 20.2878 65.3285 21.0919 65.8233C23.2773 67.1634 25.6277 68.1118 28.1225 68.7304C28.9266 68.9159 29.4214 69.3283 29.6894 70.1324C30.2049 71.5756 30.7821 72.9982 31.3388 74.4208C33.8748 74.4208 36.3283 74.4208 38.823 74.4208C39.4003 72.9364 39.9776 71.4931 40.5137 70.0087C40.7611 69.3489 41.1734 68.9572 41.8744 68.7922C44.5135 68.1531 47.0082 67.1222 49.3174 65.7202C49.9359 65.3491 50.472 65.3078 51.1318 65.6171C52.575 66.2975 54.0389 66.916 55.379 67.4933C57.1934 65.679 58.9252 63.9471 60.719 62.1533C60.1211 60.7926 59.5231 59.3493 58.8428 57.9473C58.5129 57.267 58.5747 56.7103 58.9459 56.0711C60.3272 53.8032 61.3581 51.3703 61.9767 48.7725C62.1622 47.989 62.5952 47.5354 63.3374 47.2674C64.7806 46.752 66.2033 46.1747 67.6259 45.618C67.6259 44.7727 67.6259 43.9686 67.6259 43.1645C62.7189 43.1645 57.8944 43.1645 53.008 43.1645ZM50.4514 43.1851C40.1426 43.1851 29.8956 43.1851 19.6486 43.1851C20.1847 50.8136 26.7411 57.2876 34.8851 57.37C43.2352 57.4525 49.8947 50.8961 50.4514 43.1851Z" fill="#FFBF30"></path><path d="M7.83472 26.8972C4.26786 23.4128 5.25751 18.8769 7.62854 16.6502C10.2676 14.1761 14.3499 14.1142 17.0096 16.5471C20.0197 19.2893 19.9991 23.0829 16.9477 26.9178C17.257 27.0621 17.5662 27.2064 17.8549 27.3508C21.6692 29.3094 23.9371 32.4021 24.6793 36.5875C24.9267 38.0307 24.4938 38.5255 23.0299 38.5255C15.9375 38.5255 8.84498 38.5255 1.75251 38.5255C0.288656 38.5255 -0.123697 38.0101 0.123715 36.5669C0.907186 32.1341 3.3813 29.0002 7.44298 27.1033C7.56669 27.0415 7.69039 26.959 7.83472 26.8972ZM21.9372 36.0308C21.7104 32.2371 16.9065 28.526 12.35 28.5466C7.79348 28.5672 3.05142 32.299 2.84524 36.0308C9.2161 36.0308 15.5663 36.0308 21.9372 36.0308ZM12.35 26.0725C14.7829 26.0931 16.7828 24.1344 16.824 21.7015C16.8652 19.2893 14.8653 17.2481 12.4531 17.2275C9.99957 17.1863 7.95842 19.1862 7.9378 21.6397C7.9378 24.0519 9.9171 26.0518 12.35 26.0725Z" fill="#FFBF30"></path><path d="M70.1 23.454C70.1 27.928 70.1 32.4021 70.1 36.8761C70.1 38.1544 69.7289 38.5255 68.4506 38.5255C66.8218 38.5255 65.2136 38.5255 63.5848 38.5255C62.3684 38.5255 61.9766 38.1338 61.9766 36.8967C61.9766 33.7422 61.9766 30.5671 61.9766 27.4126C61.9766 21.6603 61.9766 15.8873 61.9766 10.135C61.9766 8.6093 62.3065 8.27942 63.8322 8.27942C65.3579 8.27942 66.863 8.27942 68.3887 8.27942C69.7082 8.27942 70.1 8.67115 70.1 9.97007C70.1 14.4647 70.1 18.9594 70.1 23.454ZM67.564 36.0308C67.564 27.5569 67.564 19.1655 67.564 10.7742C66.5125 10.7742 65.5229 10.7742 64.492 10.7742C64.492 19.2068 64.492 27.5982 64.492 36.0308C65.5435 36.0308 66.5537 36.0308 67.564 36.0308Z" fill="white"></path><path d="M42.1425 7.80522C38.4313 10.6092 34.782 13.3926 31.112 16.176C30.9471 16.2997 30.7821 16.444 30.6172 16.5471C30.0193 16.9182 29.3595 16.7945 28.9678 16.2791C28.5554 15.7636 28.6379 15.0214 29.1946 14.5678C29.5863 14.2379 29.9987 13.9493 30.411 13.6194C33.8748 11.001 37.3386 8.38251 40.7817 5.72284C41.5033 5.16616 42.1218 5.06307 42.9672 5.43419C46.534 7.00113 50.1215 8.52684 53.7708 10.0938C56.348 7.74337 58.9665 5.37234 61.7292 2.85699C61.1932 2.85699 60.8633 2.85699 60.5128 2.85699C59.7293 2.83637 59.1933 2.34154 59.1933 1.64054C59.1933 0.980779 59.6881 0.424103 60.4097 0.403485C61.9354 0.36225 63.4405 0.36225 64.9662 0.403485C65.7291 0.424103 66.2239 1.0014 66.1208 1.74363C65.8734 3.28996 65.5641 4.83628 65.2342 6.36199C65.0899 7.02175 64.5745 7.33101 63.8941 7.24854C63.2343 7.16607 62.8426 6.65063 62.8632 5.92901C62.8632 5.72284 62.9044 5.51666 62.9457 5.16616C62.657 5.41357 62.4508 5.57851 62.2653 5.74346C59.9149 7.88769 57.5232 10.0113 55.1934 12.1762C54.5337 12.7947 53.9151 12.8565 53.1111 12.506C49.4617 10.9391 45.833 9.39278 42.1425 7.80522Z" fill="#FFBF30"></path><path d="M46.0186 27.124C46.0186 30.3815 46.0186 33.6598 46.0186 36.9173C46.0186 38.1544 45.6269 38.5461 44.4104 38.5461C42.7404 38.5461 41.0704 38.5461 39.4004 38.5461C38.3282 38.5461 37.8953 38.1132 37.8953 37.041C37.8953 30.4434 37.8953 23.8251 37.8953 17.2275C37.8953 16.1348 38.3489 15.7018 39.4622 15.7018C41.1322 15.7018 42.8023 15.7018 44.4723 15.7018C45.565 15.7018 45.998 16.1554 46.0186 17.2481C46.0186 20.5263 46.0186 23.8251 46.0186 27.124ZM43.4826 36.0308C43.4826 30.031 43.4826 24.1138 43.4826 18.1965C42.4311 18.1965 41.4415 18.1965 40.4106 18.1965C40.4106 24.155 40.4106 30.0723 40.4106 36.0308C41.4621 36.0308 42.4724 36.0308 43.4826 36.0308Z" fill="white"></path><path d="M58.0593 29.0414C58.0593 31.6805 58.0593 34.3401 58.0593 36.9792C58.0593 38.1132 57.6469 38.5255 56.5336 38.5255C54.8429 38.5255 53.1316 38.5255 51.441 38.5255C50.3689 38.5255 49.9359 38.1132 49.9359 37.041C49.9359 31.7217 49.9359 26.4023 49.9359 21.083C49.9359 19.9696 50.3895 19.5573 51.5029 19.5573C53.1729 19.5573 54.8429 19.5573 56.5129 19.5573C57.6263 19.5573 58.0593 19.9903 58.0593 21.1036C58.0593 23.7427 58.0593 26.3817 58.0593 29.0414ZM52.4513 22.0314C52.4513 26.7322 52.4513 31.3712 52.4513 36.0102C53.5234 36.0102 54.5336 36.0102 55.5233 36.0102C55.5233 31.33 55.5233 26.691 55.5233 22.0314C54.4924 22.0314 53.5234 22.0314 52.4513 22.0314Z" fill="white"></path><path d="M33.9779 31.9072C33.9779 33.6391 33.9779 35.3504 33.9779 37.0823C33.9779 38.1132 33.5449 38.5461 32.5346 38.5461C30.7821 38.5668 29.0296 38.5668 27.2977 38.5461C26.3287 38.5461 25.8545 38.1132 25.8545 37.1441C25.8339 33.6598 25.8339 30.1548 25.8545 26.6498C25.8545 25.6807 26.3287 25.2477 27.2977 25.2477C29.0502 25.2477 30.8027 25.2271 32.5346 25.2477C33.5037 25.2477 33.9573 25.7013 33.9573 26.6704C33.9985 28.4023 33.9779 30.1547 33.9779 31.9072ZM28.3699 27.7425C28.3699 30.5465 28.3699 33.2886 28.3699 36.0308C29.442 36.0308 30.4522 36.0308 31.4625 36.0308C31.4625 33.2474 31.4625 30.5052 31.4625 27.7425C30.4316 27.7425 29.4214 27.7425 28.3699 27.7425Z" fill="white"></path></svg> 