<?xml version="1.0" encoding="UTF-8"?> <svg xmlns="http://www.w3.org/2000/svg" width="83" height="67" viewBox="0 0 83 67" fill="none"><path d="M62.1597 25.0921C57.8312 25.4443 53.5028 25.7964 49.1857 26.1486C47.6293 25.1602 46.0501 24.1832 44.5051 23.1721C43.528 22.5359 42.426 22.3314 41.3013 22.161C39.2791 21.8543 37.2228 21.6725 35.2347 22.2178C33.7691 22.6154 32.3717 23.2857 30.9971 23.9219C30.111 24.3309 29.3384 24.9785 28.4636 25.4102C28.1342 25.5806 27.657 25.5011 27.2594 25.4783C26.0438 25.3875 24.8282 25.1716 23.6126 25.1716C22.3515 25.1602 21.2836 24.7853 20.2612 24.081C18.4662 22.854 16.5916 21.752 14.7966 20.5364C13.8082 19.8661 12.6267 20.1274 12.0814 21.2521C10.3659 24.7967 8.57092 28.2958 6.79865 31.8063C4.6401 36.0779 2.47018 40.3496 0.311638 44.6099C-0.290482 45.8028 -0.0291824 46.5639 1.17506 47.132C4.02662 48.4725 6.88953 49.8018 9.75245 51.131C10.7636 51.5968 11.3657 51.4377 12.0473 50.5175C12.2405 50.2562 12.4222 50.0063 12.6381 49.7109C13.99 50.6879 15.3079 51.6536 16.6598 52.642C15.9895 54.2438 15.8418 55.8002 16.9097 57.2771C17.9549 58.7313 19.4318 59.2198 21.17 59.1176C21.2723 60.8785 22.147 62.1282 23.5558 63.003C25.0213 63.9118 26.555 63.7073 28.1115 63.0825C28.6909 64.514 29.6224 65.5932 31.1221 66.0249C32.5876 66.4453 34.0077 66.2294 35.3255 65.4455C38.6883 67.8881 41.9943 67.1497 45.3344 65.3092C46.4364 66.1158 47.6861 66.4567 49.0721 66.1272C50.4581 65.7977 51.3897 64.9116 51.9577 63.5937C54.5707 63.9232 56.4679 62.9462 57.5699 60.4582C58.7515 60.5945 59.9216 60.5036 60.9782 59.822C62.012 59.1517 62.6596 58.2201 63.0118 57.0613C65.7611 57.0499 67.1584 55.6185 67.6242 52.3466C68.6808 51.7331 69.76 51.1082 70.8848 50.4607C71.0211 50.6197 71.112 50.7447 71.2369 50.8583C71.7255 51.3355 72.2821 51.4718 72.9524 51.2673C75.2587 50.5629 77.5763 49.8699 79.8825 49.1656C80.5187 48.9724 81.1322 48.7452 81.7797 48.5975C82.984 48.3021 83.1885 47.3137 82.859 46.3822C81.1435 41.5198 79.3826 36.6801 77.6558 31.8177C76.4515 28.4549 75.27 25.0921 74.0771 21.7293C73.9635 21.4112 73.8613 21.0704 73.6795 20.7977C73.2364 20.1161 72.4866 19.9229 71.6687 20.2751C69.5556 21.1953 67.4538 22.1496 65.3521 23.0926C64.6591 23.3993 63.9547 23.6833 63.2844 24.0242C62.8641 24.24 62.5005 24.5581 62.1029 24.8194C62.1256 24.9444 62.1483 25.0125 62.1597 25.0921ZM62.3869 28.1595C63.5798 35.0896 66.136 41.5425 69.4192 47.7795C68.3627 48.393 67.3175 48.9951 66.2496 49.62C65.3293 48.2453 64.2614 47.2229 62.5005 47.1774C60.785 47.132 59.524 47.8477 58.6492 49.2564C56.1158 48.4953 54.1617 49.2451 52.7643 51.415C51.242 50.8924 49.7878 50.9265 48.4245 51.7444C47.0612 52.5624 46.3341 53.8235 46.1296 55.3799C44.6755 55.4026 43.653 56.1184 42.8009 57.1181C41.8353 56.5841 41.29 56.6409 40.4379 57.368C38.6997 58.8222 36.9729 60.2878 35.2233 61.7192C34.6098 62.2191 33.9623 62.6849 33.2692 63.0598C32.6558 63.4006 31.8264 63.1847 31.3947 62.6849C30.9516 62.1623 31.0198 61.5829 31.3493 61.0489C31.6106 60.6399 31.9173 60.2537 32.2809 59.9356C33.1556 59.1403 34.0759 58.3791 34.9734 57.6066C36.757 56.0729 38.5406 54.5278 40.3243 52.9941C41.4263 52.0398 42.5283 51.1082 43.6076 50.1312C44.4369 49.3928 44.4028 48.234 43.5735 47.6205C42.9827 47.1774 42.1079 47.3251 41.3695 47.9727C39.5972 49.5291 37.8249 51.0742 36.0413 52.6192C33.9054 54.4597 31.7583 56.3115 29.5997 58.1292C28.7022 58.879 27.7934 59.6061 26.8391 60.2878C26.3165 60.6627 25.6802 60.7535 25.0781 60.3673C23.9307 59.6061 23.9875 58.1519 25.1804 57.1635C25.9075 56.5614 26.6232 55.9479 27.3389 55.3345C29.1794 53.7439 31.0198 52.1534 32.8716 50.5743C34.5757 49.1088 36.2912 47.6773 37.9953 46.2004C38.677 45.6096 38.6656 44.5644 38.0294 43.9282C37.3932 43.292 36.5298 43.3261 35.7573 44.0078C34.0986 45.4619 32.4286 46.9048 30.7585 48.3362C28.4182 50.3471 26.0665 52.3579 23.7262 54.3801C22.8628 55.1186 22.0107 55.8571 20.8292 56.0388C20.2725 56.1297 19.8181 55.9934 19.4659 55.5617C19.1364 55.1527 19.1024 54.6869 19.3523 54.2325C19.5568 53.8689 19.7726 53.5054 20.068 53.2214C21.3859 51.9717 22.7264 50.7674 24.067 49.5405C26.2028 47.575 28.3273 45.5869 30.4745 43.6329C33.1216 41.213 35.8141 38.85 38.427 36.4074C39.5858 35.3281 40.8355 35.2259 42.1306 35.6803C42.7441 36.6005 43.2554 37.4526 43.8575 38.2592C45.6298 40.6223 47.8678 42.0651 50.9693 41.9628C53.8436 41.8719 55.7068 39.5316 55.0478 36.7369C54.707 35.3054 53.9231 34.158 53.1052 33.2718C52.6962 31.7154 52.3326 30.3635 51.9691 29.0115C55.4228 28.7162 58.8537 28.4321 62.3869 28.1595ZM22.4424 28.1708C24.3851 28.3299 26.2937 28.5003 28.2137 28.6139C28.7136 28.6366 29.2816 28.5571 29.7247 28.3299C30.5086 27.9323 31.1902 27.3301 31.9741 26.9098C33.326 26.2054 34.6439 25.3193 36.189 25.1716C37.5636 25.0353 38.9724 25.0694 40.3584 25.1489C41.1195 25.1943 41.9602 25.2966 42.5851 25.6715C44.4596 26.7848 46.2773 28.0232 48.0723 29.2728C48.5154 29.5796 48.9698 30.0567 49.1516 30.5452C49.4924 31.4314 49.7196 32.3857 49.856 33.3286C49.9809 34.1693 50.2422 34.8396 50.8671 35.4531C51.3442 35.9303 51.7305 36.5665 51.9804 37.1913C52.3894 38.2251 51.935 38.8159 50.8216 38.8727C49.1971 38.9522 47.8906 38.3047 46.9249 37.0663C46.1183 36.0325 45.4821 34.8623 44.7209 33.7944C44.4596 33.4309 44.0847 33.0673 43.6757 32.9196C42.96 32.6583 42.1875 32.4766 41.4263 32.3971C39.9267 32.238 38.4725 32.4084 37.2569 33.4422C35.8481 34.6351 34.4394 35.8394 33.0648 37.0663C30.9857 38.9295 28.9408 40.8267 26.8845 42.724C24.3056 45.0984 21.7267 47.4955 19.1478 49.8699C18.9888 50.0176 18.7956 50.1312 18.6252 50.2562C17.1824 49.1996 15.785 48.1885 14.3649 47.1547C18.0572 41.2244 20.6929 34.9078 22.4424 28.1708ZM65.2612 26.5576C67.3629 25.6147 69.4079 24.6944 71.5096 23.7515C74.1794 31.2383 76.8265 38.6568 79.4962 46.1209C77.3604 46.7571 75.2587 47.3933 73.1115 48.0295C69.3738 41.2698 66.4427 34.2829 65.2612 26.5576ZM3.64035 44.8825C7.20763 37.8161 10.7181 30.8747 14.2513 23.8878C16.0236 25.0239 17.7277 26.1145 19.4886 27.2393C17.5232 34.6692 14.5694 41.5993 10.1273 47.9159C7.95744 46.9048 5.83298 45.905 3.64035 44.8825ZM49.1516 55.8911C49.2084 55.0845 49.6401 54.4938 50.4467 54.2211C51.117 53.9939 51.8441 54.2438 52.3213 54.9255C53.0938 56.0615 53.8436 57.2203 54.5934 58.3678C54.6843 58.5041 54.7184 58.6859 54.7297 58.8449C54.7866 59.5607 54.3662 60.2196 53.6732 60.4809C52.9347 60.7649 52.1054 60.4922 51.5942 59.7765C50.9012 58.7881 50.1968 57.8111 49.5265 56.8C49.3334 56.5387 49.2652 56.1979 49.1516 55.8911ZM60.1034 55.8457C60.0352 56.6409 59.683 57.1522 58.99 57.3908C58.4447 57.5725 57.6835 57.368 57.3995 56.959C56.7747 56.0388 56.1498 55.1186 55.5704 54.1757C55.4228 53.9484 55.3659 53.6076 55.3887 53.335C55.4682 52.5738 56.0135 52.1762 56.7065 52.0512C57.2973 51.9489 57.8085 52.1875 58.1607 52.7101C58.706 53.5054 59.2627 54.2893 59.7853 55.0959C59.9443 55.3231 60.0011 55.5958 60.1034 55.8457ZM43.3463 62.8666C41.6194 64.0709 38.7338 64.2981 37.9953 63.412C39.3473 62.2873 40.6992 61.1739 41.9602 60.1173C42.4488 61.0603 42.8805 61.9464 43.3463 62.8666ZM47.6406 63.1166C47.6179 62.469 47.4929 61.8328 46.8795 61.6283C46.141 61.367 45.8002 60.799 45.4253 60.2196C45.0276 59.6061 45.1413 59.004 45.732 58.6064C46.1978 58.2883 46.8113 58.4473 47.1976 59.004C47.7656 59.8106 48.3109 60.6172 48.8789 61.4238C49.1743 61.8328 49.2425 62.2532 48.9698 62.6849C48.6858 63.162 48.2427 63.287 47.6406 63.1166ZM61.1599 51.3582C61.194 50.8015 61.5008 50.4948 61.9552 50.3016C62.421 50.1085 62.8413 50.2562 63.1254 50.6084C63.5684 51.1651 63.9661 51.7672 64.3296 52.3807C64.625 52.8692 64.4091 53.5167 63.932 53.8121C63.4662 54.0961 62.8073 53.9598 62.4778 53.494C62.137 53.0055 61.7848 52.5056 61.4553 52.0057C61.3304 51.8013 61.2508 51.574 61.1599 51.3582Z" fill="#FFBF30"></path><path d="M47.8451 0.757309C47.0612 0.757309 46.4818 1.24582 46.3455 2.07516C45.8797 4.85855 45.4366 7.64194 44.9822 10.414C44.7436 11.8909 44.5051 13.3791 44.2438 14.856C44.0733 15.8331 44.5505 16.5942 45.4934 16.7874C46.3569 16.9578 47.0953 16.4352 47.2544 15.4809C47.7997 12.2431 48.3223 8.99387 48.8562 5.74469C49.0266 4.72222 49.197 3.71111 49.3675 2.68864C49.5606 1.52984 48.9471 0.757309 47.8451 0.757309Z" fill="white"></path><path d="M34.2463 0.757309C33.2806 0.757309 32.5876 1.4844 32.724 2.4387C33.0648 4.93807 33.417 7.42608 33.7691 9.92545C34.0304 11.7886 34.269 13.6518 34.553 15.515C34.7235 16.6056 35.8141 17.1509 36.7684 16.651C37.3478 16.3443 37.6659 15.7081 37.575 15.0492C37.166 12.0726 36.757 9.09612 36.348 6.10823C36.1663 4.76766 35.9618 3.42709 35.7686 2.09788C35.6437 1.21174 35.1211 0.757309 34.2463 0.757309Z" fill="white"></path><path d="M27.0208 18.2984C27.6116 18.3438 28.0774 18.0598 28.3387 17.5372C28.6227 16.9805 28.5773 16.4125 28.2251 15.8672C27.4753 14.697 26.7141 13.5155 25.9643 12.3453C25.0213 10.8911 24.1011 9.42559 23.1468 7.97141C22.7492 7.35793 22.0903 7.108 21.3632 7.31249C20.7383 7.4829 20.3407 7.94869 20.318 8.5849C20.3066 8.98252 20.4429 9.44831 20.6588 9.78914C21.5222 11.2206 22.4424 12.6293 23.3513 14.0381C24.067 15.1628 24.7941 16.2989 25.5212 17.4122C25.987 18.1279 26.2937 18.2984 27.0208 18.2984Z" fill="white"></path><path d="M55.4228 18.2756C56.0135 18.3665 56.4225 18.0825 56.7292 17.6394C58.2175 15.4582 59.7171 13.2883 61.194 11.0956C61.728 10.3004 61.5803 9.38014 60.8873 8.89163C60.1375 8.36904 59.2627 8.51673 58.6833 9.34606C57.1723 11.5273 55.6727 13.7313 54.1844 15.924C53.8209 16.4579 53.855 17.06 54.1276 17.594C54.3776 18.0939 54.832 18.3892 55.4228 18.2756Z" fill="white"></path></svg> 