<?xml version="1.0" encoding="UTF-8"?> <svg xmlns="http://www.w3.org/2000/svg" width="70" height="80" viewBox="0 0 70 80" fill="none"><path d="M54.6338 38.5831C59.9884 45.1223 60.8809 52.0834 57.3598 59.7259C57.5058 59.8882 57.7005 60.0991 57.9114 60.2938C61.3839 63.7663 64.8725 67.2549 68.3449 70.7273C70.5517 72.9341 70.5517 75.3193 68.3449 77.5261C68.0204 77.8506 67.6959 78.1914 67.3713 78.4997C65.5865 80.171 63.0876 80.1548 61.3352 78.4348C59.3394 76.4552 57.3598 74.4593 55.3639 72.4797C55.1692 72.285 54.9745 72.1228 54.6338 71.7982C54.6338 73.1612 54.6338 74.362 54.6338 75.5465C54.6338 77.1691 54.1794 77.6235 52.573 77.6235C35.7302 77.6235 18.8873 77.6235 2.02828 77.6235C0.486787 77.6397 0 77.1529 0 75.5952C0 51.3694 0 27.1436 0 2.91786C0 1.36014 0.486787 0.889578 2.04451 0.889578C14.5063 0.889578 26.968 0.889578 39.446 0.873352C40.1275 0.873352 40.6954 1.03561 41.2146 1.50618C45.401 5.28689 49.6198 9.0676 53.8387 12.8159C54.439 13.3513 54.6824 13.903 54.6662 14.7143C54.6175 22.6976 54.6338 30.6647 54.6338 38.5831ZM3.09921 3.97256C3.09921 27.5493 3.09921 51.0287 3.09921 74.508C19.2768 74.508 35.4057 74.508 51.5508 74.508C51.5508 72.5284 51.5508 70.6137 51.5508 68.9587C50.9017 68.2447 50.3825 67.6606 49.8795 67.1089C42.0909 71.1492 32.9393 69.2183 27.5035 62.9225C22.2624 56.8701 21.6458 47.6861 26.1242 41.0008C28.3959 37.6096 31.4465 35.1918 35.3083 33.8775C41.0037 31.9466 46.407 32.7417 51.5345 35.9707C51.5345 29.1881 51.5345 22.5354 51.5345 15.8015C51.1938 15.8015 50.9017 15.8015 50.6096 15.8015C47.1535 15.8015 43.681 15.8015 40.2248 15.8015C38.943 15.8015 38.3913 15.2498 38.3913 13.9842C38.3913 10.9498 38.3913 7.93177 38.3913 4.89746C38.3913 4.60539 38.3913 4.31331 38.3913 3.98879C26.5786 3.97256 14.8632 3.97256 3.09921 3.97256ZM41.2471 66.184C49.6036 66.2002 56.37 59.4825 56.4186 51.1422C56.4511 42.7695 49.7496 35.9383 41.4418 35.9058C32.9393 35.8733 26.108 42.6397 26.1405 51.0611C26.1567 59.4338 32.8906 66.1677 41.2471 66.184ZM52.6217 65.5836C52.7028 65.6323 52.9138 65.7621 53.0923 65.9243C56.2239 69.056 59.3556 72.1877 62.4872 75.3193C64.3695 77.2016 64.4019 77.2016 66.2517 75.3356C67.1766 74.3944 67.1929 73.8752 66.268 72.9503C62.9091 69.5915 59.5503 66.2326 56.1915 62.8738C56.013 62.6953 55.802 62.5168 55.7858 62.5006C54.7149 63.5391 53.7251 64.5127 52.6217 65.5836ZM49.1168 12.7023C46.5044 10.3657 44.038 8.15893 41.5067 5.88726C41.5067 8.25629 41.5067 10.4793 41.5067 12.7023C44.0218 12.7023 46.472 12.7023 49.1168 12.7023Z" fill="#FFBF30"></path><path d="M22.0839 31.0704C17.93 31.0704 13.7598 31.0704 9.60592 31.0704C8.87574 31.0704 8.25915 30.9081 7.90217 30.2266C7.46406 29.3991 7.85349 28.4093 8.72971 28.1172C8.95688 28.0361 9.20027 28.0036 9.44366 28.0036C17.8975 28.0036 26.3514 27.9874 34.8053 28.0036C35.9573 28.0036 36.6226 28.7662 36.4441 29.8047C36.3143 30.616 35.6815 31.0541 34.6268 31.0541C30.4566 31.0704 26.2703 31.0704 22.0839 31.0704Z" fill="white"></path><path d="M22.1326 20.0528C17.8813 20.0528 13.6462 20.0528 9.39497 20.0528C8.43762 20.0528 7.83725 19.5498 7.72367 18.7384C7.62631 17.9596 8.16178 17.2294 8.94064 17.0834C9.20026 17.0347 9.4761 17.0347 9.75195 17.0347C18.0273 17.0347 26.3027 17.0347 34.5781 17.0347C35.7302 17.0347 36.3305 17.4403 36.4603 18.2841C36.6226 19.3388 35.9573 20.0365 34.789 20.0365C30.5702 20.0528 26.3514 20.0528 22.1326 20.0528Z" fill="white"></path><path d="M54.3417 51.0936C54.293 58.3954 48.4353 64.1719 41.1335 64.1232C33.994 64.0746 28.1363 58.1195 28.2012 50.9475C28.2661 43.7431 34.1238 37.9341 41.312 37.9665C48.5813 37.999 54.3903 43.8567 54.3417 51.0936ZM31.2679 50.9962C31.2517 56.5131 35.7302 61.0565 41.1984 61.0727C46.7965 61.0889 51.356 56.5943 51.3398 51.0449C51.3236 45.5117 46.7802 40.9684 41.2795 40.9684C35.7951 40.9846 31.2842 45.4955 31.2679 50.9962Z" fill="white"></path></svg> 